<svg width="470" height="374" viewBox="0 0 470 374" fill="none" xmlns="http://www.w3.org/2000/svg">
<path d="M92.3027 310.727C125.336 310.727 158.369 310.727 191.402 310.727C224.328 310.727 257.253 310.727 290.142 310.727C308.75 310.727 327.394 310.727 346.002 310.727C346.688 310.727 346.688 309.646 346.002 309.646C312.969 309.646 279.936 309.646 246.903 309.646C213.978 309.646 181.053 309.646 148.164 309.646C129.555 309.646 110.911 309.646 92.3027 309.646C91.6175 309.646 91.6175 310.727 92.3027 310.727Z" fill="#919B9B"/>
<path d="M352.674 288.308C352.385 298.688 353.431 309.069 355.811 319.197C355.955 319.882 357.001 319.594 356.857 318.909C354.513 308.889 353.467 298.616 353.792 288.308C353.756 287.623 352.674 287.623 352.674 288.308Z" fill="#919B9B"/>
<path d="M395.624 289.137C396.634 298.725 396.021 308.42 393.821 317.792C393.677 318.477 394.687 318.765 394.867 318.08C397.103 308.601 397.752 298.833 396.706 289.137C396.634 288.452 395.552 288.452 395.624 289.137Z" fill="#919B9B"/>
<path d="M356.244 320.207C368.721 323.379 381.92 322.946 394.146 318.909C394.795 318.693 394.506 317.647 393.857 317.864C381.776 321.829 368.83 322.297 356.532 319.161C355.847 319.017 355.559 320.062 356.244 320.207Z" fill="#919B9B"/>
<path d="M353.178 288.812C367.207 291.804 381.74 291.732 395.732 288.632C396.417 288.488 396.129 287.443 395.444 287.587C381.632 290.651 367.279 290.687 353.467 287.767C352.782 287.623 352.493 288.668 353.178 288.812Z" fill="#919B9B"/>
<path d="M361.726 289.209C359.851 284.992 361.545 279.838 362.952 275.692C364.394 271.403 366.45 267.33 368.974 263.582C368.686 263.618 368.397 263.654 368.109 263.69C368.938 264.627 369.84 265.276 370.958 265.816C371.391 265.997 371.859 265.708 371.751 265.204C371.318 263.257 370.561 261.347 371.427 259.401C372.04 258.031 372.905 256.661 373.626 255.364C373.374 255.436 373.121 255.508 372.869 255.544C373.626 256.012 374.384 256.445 375.141 256.914C375.646 257.238 376.079 256.625 375.898 256.157C375.141 254.499 374.636 252.841 375.682 251.183C376.295 250.173 377.088 249.272 377.774 248.335C379.288 246.317 380.875 244.298 382.462 242.316C385.491 238.531 388.628 234.855 391.874 231.25C391.586 231.214 391.297 231.178 391.009 231.142C395.625 237.197 398.546 244.442 399.339 252.012C399.736 255.652 399.627 259.401 398.978 263.005C398.654 264.843 398.185 266.645 397.608 268.412C397.5 268.772 397.356 269.132 397.247 269.457C396.851 270.466 396.202 270.899 395.156 271.115C394.434 271.259 394.038 271.151 393.425 271.619C393.136 271.836 393.064 272.196 393.317 272.485C394.11 273.314 394.434 273.458 394.146 274.575C393.966 275.296 393.533 276.053 393.208 276.774C392.559 278.216 391.838 279.621 391.081 280.991C389.53 283.802 387.763 286.47 385.779 288.993C385.347 289.533 386.104 290.29 386.537 289.75C390.359 284.848 393.389 279.477 395.661 273.71C395.733 273.53 395.661 273.314 395.516 273.169C395.048 272.701 394.579 272.196 394.074 271.728C394.038 272.016 394.002 272.304 393.966 272.593C394.795 272.016 395.733 272.412 396.598 272.052C397.283 271.8 397.644 271.295 397.933 270.646C398.726 268.952 399.231 267.006 399.664 265.204C400.565 261.239 400.854 257.166 400.565 253.129C399.952 244.983 396.959 237.089 391.982 230.601C391.802 230.349 391.405 230.205 391.117 230.493C387.114 234.927 383.255 239.504 379.577 244.19C377.918 246.281 376.151 248.371 374.708 250.642C373.41 252.696 374.023 254.643 374.925 256.733C375.177 256.481 375.43 256.229 375.682 255.976C374.925 255.508 374.167 255.075 373.41 254.607C373.158 254.463 372.797 254.535 372.653 254.787C371.751 256.445 370.345 258.283 369.84 260.121C369.407 261.743 370.309 263.87 370.669 265.456C370.922 265.24 371.21 265.059 371.463 264.843C370.417 264.375 369.587 263.762 368.83 262.897C368.578 262.608 368.145 262.717 367.965 263.005C365.152 267.186 362.952 271.764 361.437 276.594C360.139 280.775 358.877 285.532 360.716 289.714C361.077 290.362 362.014 289.822 361.726 289.209Z" fill="#919B9B"/>
<path d="M391.081 239.432C389.638 255.76 378.459 268.844 373.807 284.199C373.59 284.884 374.636 285.136 374.852 284.487C379.504 269.024 390.72 255.904 392.162 239.432C392.235 238.711 391.117 238.747 391.081 239.432Z" fill="#919B9B"/>
<path d="M377.449 248.118C378.603 254.066 379.937 259.941 381.452 265.78C381.632 266.465 382.678 266.176 382.498 265.492C380.983 259.653 379.649 253.741 378.495 247.83C378.387 247.145 377.341 247.434 377.449 248.118Z" fill="#919B9B"/>
<path d="M389.638 251.939C392.775 249.668 395.48 246.965 397.824 243.829C398.257 243.288 397.319 242.748 396.887 243.288C394.687 246.244 392.09 248.839 389.097 251.002C388.556 251.434 389.097 252.372 389.638 251.939Z" fill="#919B9B"/>
<path d="M386.284 236.512C387.258 239.612 387.835 243.397 390.215 245.74C390.72 246.244 391.477 245.451 390.973 244.983C388.773 242.784 388.196 239.072 387.294 236.224C387.114 235.575 386.068 235.864 386.284 236.512Z" fill="#919B9B"/>
<path d="M359.561 288.921C357.362 287.19 356.027 284.776 354.909 282.252C353.647 279.297 352.565 276.269 351.592 273.205C349.752 267.33 348.418 261.275 347.625 255.183C346.002 242.424 347.3 229.52 345.749 216.724C345.425 216.833 345.064 216.905 344.74 217.013C348.779 226.096 358.227 231.539 366.089 236.945C366.017 236.693 365.944 236.441 365.908 236.188C364.827 237.738 363.745 239.288 362.663 240.838C362.41 241.198 362.735 241.667 363.132 241.667C364.538 241.667 365.764 241.487 367.098 241.018C366.882 240.946 366.702 240.838 366.485 240.766C367.82 242.82 369.154 244.875 370.488 246.929C370.524 246.713 370.561 246.497 370.561 246.281C369.911 246.893 369.37 247.578 368.829 248.335C368.649 248.587 368.829 249.092 369.154 249.128C372.111 249.561 373.157 252.372 373.914 254.895C374.131 255.544 375.176 255.292 374.96 254.607C374.059 251.759 372.76 248.551 369.443 248.083C369.551 248.335 369.659 248.623 369.767 248.876C370.236 248.155 370.705 247.65 371.318 247.073C371.498 246.929 371.534 246.605 371.39 246.425C370.056 244.37 368.721 242.316 367.387 240.261C367.279 240.081 367.026 239.937 366.774 240.009C365.548 240.405 364.358 240.622 363.096 240.586C363.24 240.874 363.42 241.126 363.564 241.415C364.646 239.865 365.728 238.315 366.81 236.765C366.99 236.513 366.846 236.188 366.63 236.008C358.912 230.71 349.644 225.411 345.677 216.472C345.461 216.004 344.595 216.22 344.668 216.76C346.254 230.025 344.848 243.433 346.723 256.661C347.625 263.041 349.103 269.313 351.159 275.404C352.818 280.342 354.549 286.361 358.768 289.714C359.345 290.11 360.102 289.353 359.561 288.921Z" fill="#919B9B"/>
<path d="M344.957 217.806C347.878 225.88 350.33 234.386 354.261 242.064C356.208 245.848 358.336 249.561 360.175 253.417C362.158 257.598 363.925 261.852 365.729 266.069C365.981 266.718 366.919 266.141 366.666 265.528C364.971 261.491 363.24 257.454 361.401 253.489C359.598 249.597 357.506 245.884 355.487 242.1C351.448 234.386 348.959 225.736 345.966 217.554C345.75 216.869 344.704 217.157 344.957 217.806Z" fill="#919B9B"/>
<path d="M346.327 245.199C350.222 245.667 354.477 245.884 357.434 248.803C357.939 249.308 358.696 248.515 358.191 248.046C355.018 244.947 350.51 244.658 346.327 244.154C345.642 244.045 345.642 245.127 346.327 245.199Z" fill="#919B9B"/>
<path d="M356.749 230.601C356.1 232.944 355.667 235.359 355.487 237.81C355.343 239.901 355.09 242.352 355.811 244.37C356.028 245.019 357.074 244.731 356.857 244.082C356.172 242.172 356.424 239.793 356.569 237.774C356.749 235.431 357.182 233.125 357.795 230.854C357.975 230.205 356.929 229.917 356.749 230.601Z" fill="#919B9B"/>
<path d="M348.779 264.843C351.592 264.915 354.297 264.951 357.038 265.708C359.742 266.465 362.411 267.258 365.116 268.051C365.801 268.231 366.089 267.186 365.404 267.006C362.519 266.177 359.67 265.275 356.749 264.519C354.117 263.834 351.484 263.87 348.779 263.798C348.094 263.726 348.094 264.807 348.779 264.843Z" fill="#919B9B"/>
<path d="M388.231 287.911C390.648 287.587 393.028 287.587 395.444 287.911C395.336 287.659 395.228 287.37 395.119 287.118C394.903 287.443 392.739 287.479 392.306 287.515C391.333 287.659 390.323 287.803 389.349 288.019C389.205 288.055 388.231 288.163 388.195 288.272C388.267 288.091 389.71 288.127 389.926 288.127C390.972 288.127 392.018 288.236 393.064 288.308C393.064 287.947 393.064 287.587 393.064 287.226C392.162 287.19 391.369 287.298 390.467 287.551C389.89 287.695 389.998 288.596 390.612 288.596C392.018 288.596 393.28 288.308 394.65 287.947C395.336 287.767 395.047 286.722 394.362 286.902C393.136 287.226 391.91 287.515 390.612 287.515C390.648 287.875 390.72 288.235 390.756 288.56C391.513 288.344 392.27 288.272 393.064 288.272C393.749 288.272 393.749 287.226 393.064 287.19C391.477 287.118 389.169 286.541 387.726 287.443C387.149 287.803 386.32 288.74 387.077 289.317C387.402 289.569 387.763 289.425 388.159 289.389C389.241 289.173 390.287 288.92 391.369 288.74C392.631 288.524 395.155 288.848 396.021 287.659C396.201 287.406 396.021 286.902 395.696 286.866C393.172 286.505 390.72 286.505 388.195 286.83C387.546 286.902 387.546 287.983 388.231 287.911Z" fill="#919B9B"/>
<path d="M353.648 288.596C354.152 288.452 354.657 288.344 355.162 288.308C355.415 288.308 355.631 288.272 355.883 288.308C355.992 288.308 356.496 288.272 356.533 288.308C356.496 288.127 356.424 287.947 356.388 287.767C356.388 287.803 356.352 287.839 356.352 287.839C356.569 287.731 356.785 287.587 357.001 287.479C356.965 287.479 356.929 287.479 356.929 287.479C357.037 287.587 357.182 287.731 357.29 287.839C357.29 287.803 357.29 287.767 357.254 287.767C357.073 287.082 356.064 287.37 356.208 288.055C356.208 288.091 356.208 288.127 356.244 288.127C356.28 288.308 356.46 288.452 356.605 288.488C356.641 288.488 356.677 288.488 356.677 288.488C356.965 288.56 357.218 288.416 357.326 288.127C357.326 288.091 357.362 288.055 357.362 288.055C357.434 287.875 357.362 287.659 357.218 287.515C356.821 287.118 355.956 287.19 355.451 287.19C354.729 287.19 353.972 287.334 353.287 287.515C352.71 287.731 352.998 288.776 353.648 288.596Z" fill="#919B9B"/>
<path d="M354.477 295.841C367.64 298.112 381.307 299.193 394.29 295.3C394.939 295.084 394.686 294.075 394.001 294.255C381.235 298.076 367.748 297.03 354.765 294.796C354.08 294.687 353.792 295.733 354.477 295.841Z" fill="#919B9B"/>
<path d="M399.808 310.655C422.924 310.655 446.076 310.655 469.192 310.655C469.877 310.655 469.877 309.574 469.192 309.574C446.076 309.574 422.924 309.574 399.808 309.574C399.087 309.574 399.087 310.655 399.808 310.655Z" fill="#919B9B"/>
<path d="M382.317 333.831C404.099 333.831 425.917 333.831 447.699 333.831C448.384 333.831 448.384 332.75 447.699 332.75C425.917 332.75 404.099 332.75 382.317 332.75C381.632 332.75 381.632 333.831 382.317 333.831Z" fill="#919B9B"/>
<path d="M392.234 333.723C389.638 335.886 387.041 338.012 384.481 340.175C383.94 340.607 384.697 341.364 385.238 340.932C387.835 338.769 390.431 336.643 392.992 334.48C393.533 334.047 392.739 333.254 392.234 333.723Z" fill="#919B9B"/>
<path d="M384.805 341.328C385.491 341.328 385.491 340.247 384.805 340.247C384.12 340.247 384.12 341.328 384.805 341.328Z" fill="#919B9B"/>
<path d="M395.805 340.247C373.843 340.247 351.881 340.247 329.918 340.247C329.233 340.247 329.233 341.328 329.918 341.328C351.881 341.328 373.843 341.328 395.805 341.328C396.49 341.328 396.49 340.247 395.805 340.247Z" fill="#919B9B"/>
<path d="M329.81 351.421C333.705 348.177 337.708 345.077 341.819 342.085C342.36 341.689 341.855 340.752 341.278 341.148C337.095 344.176 333.02 347.348 329.053 350.628C328.512 351.096 329.269 351.853 329.81 351.421Z" fill="#919B9B"/>
<path d="M1.49729 331.741C26.9574 331.741 52.4176 331.741 77.8777 331.741C85.0902 331.741 92.3027 331.741 99.5152 331.741C100.2 331.741 100.2 330.659 99.5152 330.659C74.0551 330.659 48.5949 330.659 23.1348 330.659C15.9223 330.659 8.70979 330.659 1.49729 330.659C0.812102 330.659 0.812102 331.741 1.49729 331.741Z" fill="#919B9B"/>
<path d="M14.8046 341.148C18.2306 338.229 21.6926 335.309 25.1185 332.39C25.6595 331.921 24.8661 331.164 24.3612 331.633C20.9353 334.552 17.4733 337.472 14.0473 340.392C13.5064 340.824 14.2998 341.617 14.8046 341.148Z" fill="#919B9B"/>
<path d="M2.39866 342.194C26.0557 342.194 49.7127 342.194 73.3697 342.194C74.0549 342.194 74.0549 341.112 73.3697 341.112C49.7127 341.112 26.0557 341.112 2.39866 341.112C1.71347 341.112 1.71347 342.194 2.39866 342.194Z" fill="#919B9B"/>
<path d="M65.1116 341.977C62.4069 345.005 59.6301 347.961 56.8172 350.916C56.3484 351.421 57.1057 352.178 57.5745 351.673C60.3874 348.718 63.1281 345.762 65.8689 342.734C66.3738 342.23 65.5804 341.473 65.1116 341.977Z" fill="#919B9B"/>
<path d="M46.6477 352.647C67.4557 352.647 88.2277 352.647 109.036 352.647C109.721 352.647 109.721 351.565 109.036 351.565C88.2277 351.565 67.4557 351.565 46.6477 351.565C45.9625 351.565 45.9625 352.647 46.6477 352.647Z" fill="#919B9B"/>
<path d="M31.8982 313.611C40.6974 313.611 49.4967 313.611 58.332 313.611C59.0172 313.611 59.0172 312.529 58.332 312.529C49.5327 312.529 40.7335 312.529 31.8982 312.529C31.213 312.529 31.213 313.611 31.8982 313.611Z" fill="#919B9B"/>
<path d="M65.0033 317.143C67.708 317.143 70.4488 317.143 73.1535 317.143C73.8386 317.143 73.8386 316.062 73.1535 316.062C70.4488 316.062 67.708 316.062 65.0033 316.062C64.2821 316.062 64.2821 317.143 65.0033 317.143Z" fill="#919B9B"/>
<path d="M45.4214 124.415C45.4214 130.291 45.4214 136.202 45.4214 142.077C45.4214 142.762 46.5032 142.762 46.5032 142.077C46.5032 136.202 46.5032 130.291 46.5032 124.415C46.5032 123.731 45.4214 123.731 45.4214 124.415Z" fill="#919B9B"/>
<path d="M27.2822 142.942C41.7793 142.942 56.2765 142.942 70.7736 142.942C71.4588 142.942 71.4588 141.861 70.7736 141.861C56.2765 141.861 41.7793 141.861 27.2822 141.861C26.597 141.861 26.597 142.942 27.2822 142.942Z" fill="#919B9B"/>
<path d="M57.6465 143.447C57.6465 147.988 57.6465 152.494 57.6465 157.036C57.6465 157.72 58.7283 157.72 58.7283 157.036C58.7283 152.494 58.7283 147.988 58.7283 143.447C58.7283 142.726 57.6465 142.726 57.6465 143.447Z" fill="#919B9B"/>
<path d="M45.6379 158.909C57.1779 158.909 68.7539 158.909 80.2939 158.909C80.9791 158.909 80.9791 157.828 80.2939 157.828C68.7539 157.828 57.1779 157.828 45.6379 157.828C44.9166 157.828 44.9166 158.909 45.6379 158.909Z" fill="#919B9B"/>
<path d="M336.662 111.764C336.662 113.206 336.662 114.612 336.662 116.053C336.662 116.738 337.744 116.738 337.744 116.053C337.744 114.612 337.744 113.206 337.744 111.764C337.744 111.079 336.662 111.079 336.662 111.764Z" fill="#919B9B"/>
<path d="M337.528 112.629C362.339 112.629 387.15 112.629 411.961 112.629C412.646 112.629 412.646 111.548 411.961 111.548C387.15 111.548 362.339 111.548 337.528 111.548C336.842 111.548 336.842 112.629 337.528 112.629Z" fill="#919B9B"/>
<path d="M338.177 116.594C362.771 116.594 387.366 116.594 411.925 116.594C412.61 116.594 412.61 115.513 411.925 115.513C387.33 115.513 362.735 115.513 338.177 115.513C337.492 115.513 337.492 116.594 338.177 116.594Z" fill="#919B9B"/>
<path d="M411.78 111.764C411.636 113.242 411.708 114.72 411.961 116.198C412.069 116.882 413.115 116.594 413.006 115.909C412.754 114.54 412.718 113.134 412.862 111.764C412.934 111.079 411.852 111.079 411.78 111.764Z" fill="#919B9B"/>
<path d="M342.612 111.8C342.612 101.744 342.612 91.6876 342.612 81.6313C342.612 80.9465 341.531 80.9465 341.531 81.6313C341.531 91.6876 341.531 101.744 341.531 111.8C341.531 112.521 342.612 112.521 342.612 111.8Z" fill="#919B9B"/>
<path d="M342.612 81.8114C345.678 80.5859 348.923 80.7661 351.772 82.4602C352.385 82.8206 352.926 81.8835 352.313 81.523C349.248 79.7208 345.606 79.4325 342.324 80.7661C341.675 81.0184 341.963 82.0637 342.612 81.8114Z" fill="#919B9B"/>
<path d="M351.592 82.208C351.592 91.8678 351.592 101.564 351.592 111.223C351.592 111.908 352.674 111.908 352.674 111.223C352.674 101.564 352.674 91.8678 352.674 82.208C352.674 81.5231 351.592 81.5231 351.592 82.208Z" fill="#919B9B"/>
<path d="M352.818 90.282C355.018 89.3809 357.326 89.525 359.382 90.7866C359.995 91.147 360.536 90.2099 359.923 89.8494C357.651 88.4798 354.982 88.2275 352.53 89.2367C351.881 89.489 352.169 90.5343 352.818 90.282Z" fill="#919B9B"/>
<path d="M359.165 90.7504C359.165 97.5267 359.165 104.267 359.165 111.043C359.165 111.728 360.247 111.728 360.247 111.043C360.247 104.267 360.247 97.5267 360.247 90.7504C360.247 90.0656 359.165 90.0656 359.165 90.7504Z" fill="#919B9B"/>
<path d="M342.757 90.1015C345.822 89.4167 348.851 89.633 351.808 90.6782C352.458 90.8945 352.746 89.8492 352.097 89.633C348.959 88.5156 345.714 88.3714 342.468 89.0563C341.819 89.2004 342.108 90.2457 342.757 90.1015Z" fill="#919B9B"/>
<path d="M352.061 102.609C354.369 101.996 356.677 101.924 359.021 102.429C359.706 102.573 359.995 101.527 359.31 101.383C356.785 100.843 354.297 100.879 351.772 101.564C351.123 101.744 351.376 102.789 352.061 102.609Z" fill="#919B9B"/>
<path d="M372.796 111.44C372.796 109.421 372.796 107.403 372.796 105.384C372.796 104.699 371.715 104.699 371.715 105.384C371.715 107.403 371.715 109.421 371.715 111.44C371.715 112.124 372.796 112.124 372.796 111.44Z" fill="#919B9B"/>
<path d="M372.256 105.709C383.976 105.709 395.66 105.709 407.38 105.709C408.066 105.709 408.066 104.627 407.38 104.627C395.66 104.627 383.976 104.627 372.256 104.627C371.534 104.627 371.534 105.709 372.256 105.709Z" fill="#919B9B"/>
<path d="M407.742 106.285C408.427 106.285 408.427 105.204 407.742 105.204C407.02 105.204 407.02 106.285 407.742 106.285Z" fill="#919B9B"/>
<path d="M407.201 105.745C407.201 107.583 407.201 109.421 407.201 111.259C407.201 111.944 408.283 111.944 408.283 111.259C408.283 109.421 408.283 107.583 408.283 105.745C408.283 105.06 407.201 105.06 407.201 105.745Z" fill="#919B9B"/>
<path d="M379.613 104.988C379.613 103.078 379.613 101.203 379.613 99.2929C379.613 98.6081 378.531 98.6081 378.531 99.2929C378.531 101.203 378.531 103.078 378.531 104.988C378.531 105.673 379.613 105.673 379.613 104.988Z" fill="#919B9B"/>
<path d="M379.072 99.6531C390.575 99.6531 402.079 99.6531 413.619 99.6531C414.305 99.6531 414.305 98.5718 413.619 98.5718C402.115 98.5718 390.612 98.5718 379.072 98.5718C378.386 98.5718 378.386 99.6531 379.072 99.6531Z" fill="#919B9B"/>
<path d="M413.259 99.1124C413.259 100.698 413.259 102.284 413.259 103.87C413.259 104.555 414.341 104.555 414.341 103.87C414.341 102.284 414.341 100.698 414.341 99.1124C414.341 98.3916 413.259 98.3916 413.259 99.1124Z" fill="#919B9B"/>
<path d="M406.984 105.889C409.076 105.889 411.168 105.889 413.259 105.889C413.944 105.889 413.944 104.808 413.259 104.808C411.168 104.808 409.076 104.808 406.984 104.808C406.263 104.808 406.263 105.889 406.984 105.889Z" fill="#919B9B"/>
<path d="M413.187 103.907C413.115 104.303 413.115 104.664 413.223 105.024C413.295 105.312 413.62 105.493 413.872 105.384C414.161 105.312 414.341 104.988 414.233 104.736C414.197 104.555 414.161 104.339 414.197 104.195C414.233 103.907 414.125 103.582 413.836 103.546C413.584 103.474 413.223 103.618 413.187 103.907Z" fill="#919B9B"/>
<path d="M387.294 99.365C387.763 101.203 387.871 103.078 387.618 104.988C387.546 105.673 388.628 105.673 388.7 104.988C388.953 103.005 388.808 101.023 388.34 99.0766C388.159 98.4279 387.113 98.7162 387.294 99.365Z" fill="#919B9B"/>
<path d="M395.444 105.636C395.697 107.439 395.552 109.205 395.12 110.935C394.939 111.62 395.985 111.908 396.166 111.223C396.67 109.277 396.779 107.331 396.49 105.348C396.418 104.663 395.372 104.952 395.444 105.636Z" fill="#919B9B"/>
<path d="M388.376 149.502C388.376 152.35 388.376 155.161 388.376 158.008C388.376 158.693 389.458 158.693 389.458 158.008C389.458 155.161 389.458 152.35 389.458 149.502C389.458 148.781 388.376 148.781 388.376 149.502Z" fill="#919B9B"/>
<path d="M380.009 158.153C387.222 158.153 394.435 158.153 401.647 158.153C402.332 158.153 402.332 157.071 401.647 157.071C394.435 157.071 387.222 157.071 380.009 157.071C379.324 157.071 379.324 158.153 380.009 158.153Z" fill="#919B9B"/>
<path d="M367.712 36.9003C367.712 43.3883 367.712 49.9122 367.712 56.4002C367.712 57.085 368.794 57.085 368.794 56.4002C368.794 49.9122 368.794 43.3883 368.794 36.9003C368.794 36.2155 367.712 36.2155 367.712 36.9003Z" fill="#919B9B"/>
<path d="M369.082 36.8645C377.305 36.8645 385.491 36.8645 393.713 36.8645C394.398 36.8645 394.398 35.7832 393.713 35.7832C385.491 35.7832 377.305 35.7832 369.082 35.7832C368.397 35.7832 368.397 36.8645 369.082 36.8645Z" fill="#919B9B"/>
<path d="M393.749 36.7202C393.749 42.9918 393.749 49.2635 393.749 55.4991C393.749 56.184 394.831 56.184 394.831 55.4991C394.831 49.2275 394.831 42.9558 394.831 36.7202C394.831 36.0353 393.749 36.0353 393.749 36.7202Z" fill="#919B9B"/>
<path d="M368.109 57.013C376.836 57.013 385.563 57.013 394.29 57.013C394.975 57.013 394.975 55.9316 394.29 55.9316C385.563 55.9316 376.836 55.9316 368.109 55.9316C367.424 55.9316 367.424 57.013 368.109 57.013Z" fill="#919B9B"/>
<path d="M370.128 39.1352C370.128 44.0732 370.128 48.9752 370.128 53.9133C370.128 54.5981 371.21 54.5981 371.21 53.9133C371.21 48.9752 371.21 44.0732 371.21 39.1352C371.21 38.4504 370.128 38.4504 370.128 39.1352Z" fill="#919B9B"/>
<path d="M370.922 39.5677C377.665 39.5677 384.445 39.5677 391.189 39.5677C391.874 39.5677 391.874 38.4863 391.189 38.4863C384.445 38.4863 377.665 38.4863 370.922 38.4863C370.236 38.4863 370.236 39.5677 370.922 39.5677Z" fill="#919B9B"/>
<path d="M390.792 39.1352C390.792 43.7128 390.792 48.2544 390.792 52.832C390.792 53.5168 391.874 53.5168 391.874 52.832C391.874 48.2544 391.874 43.7128 391.874 39.1352C391.874 38.4504 390.792 38.4504 390.792 39.1352Z" fill="#919B9B"/>
<path d="M370.922 54.4539C377.629 54.4539 384.337 54.4539 391.081 54.4539C391.766 54.4539 391.766 53.3726 391.081 53.3726C384.373 53.3726 377.665 53.3726 370.922 53.3726C370.236 53.3726 370.236 54.4539 370.922 54.4539Z" fill="#919B9B"/>
<path d="M383.688 47.9659C380.839 45.8032 385.094 41.2977 387.078 44.001C388.917 46.452 385.924 49.4076 383.363 48.038C382.75 47.7136 382.209 48.6507 382.822 48.9751C384.481 49.8762 386.681 49.6239 387.871 48.074C389.097 46.5241 388.953 44.0731 387.402 42.7755C385.779 41.4419 383.471 42.343 382.353 43.8568C381.163 45.5149 381.524 47.6775 383.147 48.903C383.724 49.2995 384.229 48.3624 383.688 47.9659Z" fill="#919B9B"/>
<path d="M380.262 53.3005C380.117 50.453 383.615 49.3717 385.815 49.3717C388.52 49.3717 389.385 51.7867 390.503 53.8412C390.828 54.4539 391.765 53.9133 391.441 53.3005C390.684 51.9309 389.962 50.1287 388.7 49.1194C387.546 48.2183 386.104 48.2544 384.733 48.3985C382.209 48.6869 378.999 50.2368 379.18 53.3005C379.216 53.9854 380.298 53.9854 380.262 53.3005Z" fill="#919B9B"/>
<path d="M371.391 50.7055C372.184 49.2277 375.105 49.8044 376.187 50.3811C377.305 50.9938 377.954 52.003 378.242 53.2285C378.387 53.9134 379.432 53.625 379.288 52.9402C378.855 51.0659 377.557 49.5881 375.682 48.9753C374.095 48.4707 371.391 48.4347 370.489 50.1288C370.128 50.7775 371.066 51.3182 371.391 50.7055Z" fill="#919B9B"/>
<path d="M373.482 48.0381C372.292 48.002 372.581 46.2359 373.085 45.6231C373.735 44.8301 375.033 44.722 375.79 45.4789C376.403 46.0556 376.583 47.137 376.079 47.8218C375.718 48.3264 375.177 48.4345 374.6 48.4345C374.384 48.4345 373.482 48.4706 373.338 48.2904C372.941 47.7137 372.004 48.2543 372.4 48.831C372.833 49.4798 373.735 49.5159 374.456 49.5159C375.321 49.5519 376.151 49.3356 376.764 48.6869C377.918 47.4253 377.521 45.2987 376.151 44.3616C374.672 43.3884 372.617 43.929 371.859 45.515C371.21 46.9207 371.679 49.0473 373.482 49.0833C374.203 49.1554 374.203 48.0741 373.482 48.0381Z" fill="#919B9B"/>
<path d="M152.779 132.705C154.474 134.075 156.566 133.498 158.153 132.164C160.388 130.326 161.506 127.19 161.939 124.415C163.057 117.35 160.208 110.646 159.09 103.798C157.071 91.0742 162.624 77.4495 172.938 69.8082C177.951 66.0596 186.209 62.0587 184.262 54.3813C184.082 53.6965 183.036 53.9849 183.216 54.6697C185.055 61.9866 176.544 65.6992 171.892 69.2315C167.709 72.4394 164.319 76.5845 161.903 81.2341C159.523 85.7396 158.08 90.7498 157.684 95.832C157.215 101.995 158.838 107.726 160.172 113.674C160.965 117.278 161.47 121.063 160.785 124.739C160.461 126.433 159.884 128.091 158.982 129.569C157.972 131.155 155.556 133.606 153.537 131.984C153.032 131.516 152.238 132.272 152.779 132.705Z" fill="#919B9B"/>
<path d="M183.865 53.9491C179.79 54.1293 176.22 50.9574 176.437 46.7763C176.653 42.415 181.81 38.378 186.173 39.5315C190.068 40.5767 193.061 44.866 192.088 48.8669C191.114 52.8678 186.606 53.7328 183.144 54.3095C182.459 54.4177 182.747 55.4629 183.433 55.3548C187.904 54.6339 193.097 53.048 193.386 47.6414C193.602 43.244 189.671 38.4862 185.164 38.306C180.403 38.0897 175.607 41.9824 175.355 46.8124C175.138 51.5702 179.213 55.2467 183.865 55.0664C184.551 54.9944 184.551 53.913 183.865 53.9491Z" fill="#919B9B"/>
<path d="M178.528 51.1374C180.259 46.776 189.491 46.0552 190.573 51.2455C190.717 51.9304 191.763 51.642 191.619 50.9572C190.285 44.6134 179.574 45.5506 177.482 50.849C177.23 51.4978 178.276 51.7501 178.528 51.1374Z" fill="#919B9B"/>
<path d="M183.937 46.2716C183.18 45.7309 182.891 44.6856 183.396 43.8926C183.973 42.9195 185.199 42.8113 186.137 43.3159C186.858 43.7124 187.002 44.6135 186.57 45.2984C186.029 46.1274 184.875 46.2355 183.973 46.0192C183.288 45.8751 183 46.9204 183.685 47.0645C185.127 47.3889 186.858 47.0645 187.579 45.6588C188.229 44.3973 187.76 42.8834 186.462 42.2707C185.019 41.6219 183.288 41.9102 182.459 43.3159C181.629 44.6496 182.17 46.3076 183.396 47.1727C183.973 47.6412 184.514 46.7041 183.937 46.2716Z" fill="#919B9B"/>
<path d="M199.228 35.17C203.014 25.1498 213.905 20.0316 224.039 19.3467C230.746 18.8782 237.454 19.9234 244.017 21.185C250.22 22.4105 256.675 24.3568 263.022 24.1406C268.251 23.9604 273.625 21.7977 276.077 16.9318C276.402 16.319 275.464 15.7784 275.139 16.3911C272.291 22.014 265.727 23.4558 259.921 22.9872C253.141 22.4465 246.47 20.4281 239.798 19.3107C228.979 17.5085 217.439 17.2562 207.811 23.3476C203.447 26.123 199.985 30.0158 198.146 34.8817C197.93 35.5305 198.975 35.8188 199.228 35.17Z" fill="#919B9B"/>
<path d="M280.44 16.3191C289.961 16.3191 299.517 16.3191 309.038 16.3191C309.723 16.3191 309.723 15.2378 309.038 15.2378C299.517 15.2378 289.961 15.2378 280.44 15.2378C279.719 15.2378 279.719 16.3191 280.44 16.3191Z" fill="#919B9B"/>
<path d="M280.044 15.1657C278.349 13.5076 280.188 10.6962 281.523 9.43467C283.146 7.84873 285.381 7.23598 287.545 8.10104C287.726 8.17313 288.086 8.065 288.158 7.84873C289.457 4.82103 292.522 2.62235 295.876 2.76652C299.374 2.9107 302.331 5.54192 303.196 8.85797C303.268 9.18236 303.701 9.36258 303.99 9.18236C305.576 8.20917 307.199 9.36258 307.848 10.8404C308.425 12.2101 308.281 13.76 308.137 15.2378C308.065 15.9226 309.147 15.9226 309.219 15.2378C309.435 13.0751 309.579 10.516 307.848 8.85797C306.622 7.70456 304.927 7.34411 303.485 8.24521C303.737 8.35335 304.026 8.46148 304.278 8.56961C303.305 4.96521 300.203 2.08169 296.417 1.72125C292.522 1.32476 288.771 3.73971 287.257 7.30807C287.473 7.23598 287.653 7.12785 287.87 7.05577C284.985 5.90236 281.956 7.12785 280.08 9.50676C278.674 11.2729 277.448 14.1204 279.359 15.9586C279.792 16.4272 280.549 15.6703 280.044 15.1657Z" fill="#919B9B"/>
<path d="M300.563 20.4641C304.999 19.9595 307.596 24.6091 308.281 28.3577C309.002 32.2144 308.317 36.0711 307.92 39.9279C307.307 45.7309 307.704 52.7235 313.221 56.1116C313.798 56.4721 314.375 55.5349 313.762 55.1745C306.225 50.5609 309.363 40.2883 309.651 33.2237C309.868 27.8531 307.74 18.5898 300.563 19.3827C299.878 19.4548 299.878 20.5362 300.563 20.4641Z" fill="#919B9B"/>
<path d="M319.208 50.02C315.962 58.202 312.753 66.384 309.507 74.5299C309.255 75.1787 310.301 75.4671 310.553 74.8183C313.799 66.6363 317.008 58.4543 320.254 50.3084C320.506 49.6596 319.461 49.4073 319.208 50.02Z" fill="#919B9B"/>
<path d="M319.713 50.7049C325.339 50.4165 330.928 50.5607 336.518 51.2095C336.338 50.9932 336.157 50.7409 336.013 50.5247C333.345 59.0671 331.181 67.7177 329.45 76.4764C329.306 77.1612 330.351 77.4496 330.496 76.7647C332.227 68.006 334.427 59.3554 337.059 50.813C337.167 50.4526 336.879 50.1642 336.554 50.1282C330.965 49.4794 325.375 49.3352 319.749 49.6235C319.028 49.6596 319.028 50.7409 319.713 50.7049Z" fill="#919B9B"/>
<path d="M309.759 75.5756C313.077 75.7198 316.359 75.9 319.677 76.1163C322.886 76.2965 326.312 76.2244 329.341 77.4499C329.99 77.7022 330.279 76.6569 329.63 76.4046C326.745 75.2151 323.463 75.2872 320.398 75.107C316.864 74.8907 313.33 74.7105 309.759 74.5303C309.074 74.4582 309.074 75.5395 309.759 75.5756Z" fill="#919B9B"/>
<path d="M320.217 54.3093C323.679 54.3814 327.142 54.6337 330.567 55.1022C331.253 55.2104 331.541 54.1651 330.856 54.057C327.322 53.5523 323.788 53.264 320.217 53.1919C319.496 53.1919 319.496 54.2732 320.217 54.3093Z" fill="#919B9B"/>
<path d="M319.172 56.7606C321.119 56.6885 323.067 56.7245 325.014 56.9047C325.699 56.9768 325.699 55.8955 325.014 55.8234C323.067 55.6432 321.119 55.5711 319.172 55.6792C318.487 55.7153 318.487 56.7966 319.172 56.7606Z" fill="#919B9B"/>
<path d="M316.792 61.6261C320.939 61.3738 324.87 61.0134 328.945 62.0226C329.63 62.2028 329.918 61.1576 329.233 60.9773C325.05 59.9681 321.047 60.2925 316.792 60.5448C316.07 60.5809 316.07 61.6622 316.792 61.6261Z" fill="#919B9B"/>
<path d="M316.972 64.7982C319.352 64.618 321.732 64.618 324.112 64.8343C324.798 64.9064 324.798 63.825 324.112 63.753C321.732 63.5367 319.352 63.5367 316.972 63.7169C316.287 63.789 316.251 64.8703 316.972 64.7982Z" fill="#919B9B"/>
<path d="M315.097 68.9795C318.342 68.7632 321.516 68.8714 324.725 69.3039C325.411 69.412 325.411 68.3307 324.725 68.2226C321.516 67.79 318.306 67.6819 315.097 67.8982C314.411 67.9342 314.411 69.0155 315.097 68.9795Z" fill="#919B9B"/>
<path d="M135.65 20.6084C137.092 22.5547 139.184 23.3477 141.312 24.3209C143.836 25.4743 146.144 27.0242 148.019 29.0787C152.275 33.6563 153.681 39.8198 153.789 45.9113C154.042 57.3372 150.183 69.3038 155.376 80.117C155.664 80.7298 156.602 80.1891 156.314 79.5764C150.868 68.1865 155.701 55.4269 154.763 43.4603C154.366 38.2699 152.888 33.1877 149.534 29.1508C147.947 27.2405 146 25.5824 143.836 24.3569C141.42 22.9873 138.282 22.3745 136.587 20.0677C136.191 19.527 135.253 20.0677 135.65 20.6084Z" fill="#919B9B"/>
<path d="M123.316 5.36133C122.379 4.17188 122.451 3.34287 123.533 2.8743C124.001 2.62199 124.47 2.44177 125.011 2.33364C125.696 2.18946 126.454 2.15342 127.175 2.18946C129.339 2.29759 131.538 2.8743 131.43 5.50551C131.322 8.6053 130.745 11.669 129.988 14.6607C129.194 17.7244 128.221 20.7161 127.175 23.7078C126.958 24.3565 126.778 25.1135 126.454 25.7262C125.804 26.8436 124.795 26.8075 123.713 26.8075C122.379 26.8075 120.684 26.9878 119.385 26.6273C117.943 26.2308 117.618 24.7891 119.025 23.8519C119.674 23.4194 120.575 23.3473 121.333 23.3473C122.306 23.3473 123.172 23.5636 124.001 22.9148C125.588 21.6893 125.841 18.3732 126.201 16.6071C126.742 14.048 127.644 10.9121 127.463 8.31695C127.319 6.33453 125.372 6.26244 123.965 5.43343C123.352 5.07299 122.811 6.01013 123.424 6.37057C124.542 7.01936 126.165 7.09145 126.381 8.56926C126.634 10.2994 125.913 12.6422 125.588 14.3723C125.264 16.0304 124.903 17.6884 124.47 19.3104C124.146 20.5359 124.001 22.0137 122.379 22.3381C121.729 22.4823 120.936 22.266 120.251 22.3741C118.52 22.6264 116.825 23.8519 117.077 25.7983C117.402 28.2493 120.323 27.8168 122.126 27.8889C124.362 27.9609 126.598 28.2853 127.608 25.9064C128.87 22.9508 129.771 19.7069 130.637 16.6431C131.538 13.4712 132.224 10.1912 132.476 6.91123C132.692 4.3521 132.801 2.29759 129.952 1.61276C127.463 1.00001 124.037 0.711655 122.09 2.73012C120.792 4.06375 121.116 6.69497 123.352 6.51475C124.001 6.37057 124.001 5.28925 123.316 5.36133Z" fill="#919B9B"/>
<path d="M118.953 9.21844C118.917 9.18239 118.881 9.14635 118.845 9.1103C118.7 8.96613 118.484 8.93008 118.304 8.96612C117.258 9.32657 116.861 11.0206 116.573 11.9578C116.068 13.6879 115.96 15.454 116.212 17.2563C116.284 17.9411 117.366 17.9411 117.294 17.2563C117.15 15.9947 117.114 14.7692 117.33 13.5077C117.438 12.8589 118.556 10.3358 118.159 9.97536C118.664 10.48 119.422 9.72305 118.953 9.21844Z" fill="#919B9B"/>
<path d="M115.31 5.25338C111.993 9.47054 109.865 14.5527 111.271 19.9594C111.452 20.6442 112.498 20.3558 112.317 19.671C111.019 14.6969 113.038 9.90306 116.068 6.01031C116.5 5.46965 115.743 4.71272 115.31 5.25338Z" fill="#919B9B"/>
<path d="M110.767 0.387523C105.249 7.63238 102.653 16.7876 103.59 25.8707C103.662 26.5555 104.744 26.5555 104.672 25.8707C103.771 16.9678 106.259 8.0649 111.704 0.928184C112.101 0.387523 111.163 -0.153137 110.767 0.387523Z" fill="#919B9B"/>
<path d="M103.085 37.2244C100.308 38.5581 97.7119 40.3963 95.6564 42.7031C93.5647 45.082 92.9156 47.6412 92.591 50.741C91.8698 57.8416 89.2372 65.6271 82.0969 68.6188C81.4477 68.8711 81.7362 69.9164 82.3854 69.6641C88.0832 67.2852 91.401 61.8786 92.8074 56.0394C93.6369 52.5432 93.2402 48.3981 95.0794 45.2623C96.9546 42.0543 100.344 39.7115 103.626 38.1255C104.275 37.8732 103.734 36.9361 103.085 37.2244Z" fill="#919B9B"/>
<path d="M66.8425 87.7583C64.4623 87.8304 61.7576 86.8211 60.8921 84.3701C59.8824 81.4866 62.0461 78.6752 64.3541 77.1974C68.8259 74.3138 74.8483 73.1965 80.0413 73.1244C82.6739 73.0883 85.6671 73.1244 87.9751 74.5301C90.9322 76.3323 91.4371 79.7204 89.1291 82.2796C85.631 86.1723 79.6086 86.5688 74.7762 86.9293C74.091 86.9653 74.091 88.0466 74.7762 88.0106C79.6086 87.6501 85.018 87.2176 88.9127 83.9736C92.4829 81.018 92.7353 76.116 88.5521 73.5569C84.2246 70.9257 77.6251 71.7908 72.937 72.8C68.4292 73.7732 62.2625 75.5393 60.243 80.189C58.1514 84.9468 62.1543 88.9117 66.9146 88.7675C67.5637 88.8035 67.5637 87.7222 66.8425 87.7583Z" fill="#919B9B"/>
<path d="M66.6623 88.1906C65.7607 89.6324 64.8952 91.0742 63.9937 92.4799C63.7052 92.9485 64.2822 93.4531 64.751 93.2368C66.9508 92.0474 69.3309 91.2904 71.5668 90.2452C72.7929 89.7045 73.983 89.0557 75.137 88.3348C75.5337 88.0825 76.0025 87.9383 76.1107 87.4337C76.1828 87.1814 76.0385 86.821 75.75 86.7849C75.714 86.7849 75.6779 86.7849 75.6418 86.7489C75.3894 86.7128 75.0288 86.821 74.9927 87.1093C74.9927 87.1454 74.9927 87.1454 74.9927 87.1814C74.8485 87.8662 75.8943 88.1546 76.0385 87.4698C76.0385 87.4337 76.0385 87.4337 76.0385 87.3977C75.8222 87.5058 75.6058 87.65 75.3894 87.7581C75.4255 87.7581 75.4615 87.7581 75.4976 87.7942C75.3894 87.5779 75.2452 87.3616 75.137 87.1454C75.0288 87.5058 73.0093 88.3348 72.5765 88.5871C71.4947 89.1638 70.3767 89.6324 69.2227 90.101C67.5278 90.7858 65.8689 91.4346 64.2822 92.2997C64.5346 92.552 64.7871 92.8043 65.0395 93.0566C65.941 91.6148 66.8065 90.1731 67.7081 88.7673C67.9605 88.1546 67.0229 87.6139 66.6623 88.1906Z" fill="#919B9B"/>
<path d="M67.852 81.9556C67.8159 81.8835 67.8159 81.7393 67.9241 81.7393C68.2126 81.7393 67.888 82.0997 67.852 82.1358C67.6716 82.2439 67.0586 82.3881 67.0946 82.0277C67.1307 81.5951 67.9602 81.1265 68.1044 81.7753C68.1405 81.9556 67.9962 82.1718 67.8159 82.2079C67.7077 82.2439 67.6356 82.2439 67.5635 82.1718C67.5274 82.1358 67.4553 82.0997 67.5274 82.0997C68.2126 82.1358 68.2126 81.0545 67.5274 81.0184C66.8061 80.9463 66.2652 81.7033 66.4455 82.3881C66.6258 83.0729 67.4192 83.4334 68.0683 83.2532C68.7175 83.0729 69.2223 82.4962 69.2223 81.8114C69.2223 81.1266 68.6814 80.5498 68.0683 80.4057C66.734 80.0813 65.3276 82.0277 66.4816 83.0008C67.4192 83.7938 69.2945 83.0729 69.1863 81.7393C69.1142 81.0184 68.3208 80.4417 67.5995 80.694C66.8783 80.9463 66.5898 81.8474 66.9504 82.4962C67.2389 83.109 68.1765 82.5683 67.852 81.9556Z" fill="#919B9B"/>
<path d="M75.822 80.982C75.786 80.7658 75.6778 80.4774 75.8942 80.2972C76.0023 80.189 76.1827 80.1891 76.3269 80.1891C76.6875 80.2611 76.6154 80.6576 76.363 80.8378C76.2187 80.946 76.0745 80.946 75.9663 80.8018C75.8581 80.6576 75.8942 80.6216 76.0023 80.5495C76.0745 80.5134 75.8581 80.5495 76.0384 80.5134C76.4712 80.4414 75.7499 80.946 75.8581 80.5855C75.6417 81.2704 76.6875 81.5227 76.9039 80.8739C77.0842 80.2251 76.4712 79.5763 75.822 79.6844C75.0647 79.8286 74.8844 80.7297 75.3532 81.2704C75.786 81.775 76.5793 81.6669 76.9039 81.0902C77.2285 80.5134 77.0121 79.7565 76.363 79.5403C75.7138 79.324 74.9926 79.7205 74.8483 80.3693C74.668 81.0902 75.1729 81.811 75.8942 81.9913C77.1924 82.2796 78.2743 80.5135 77.3367 79.5403C76.8679 79.0717 76.1105 79.0356 75.5335 79.2879C74.7401 79.6844 74.7041 80.5134 74.8483 81.2704C74.8844 81.9552 75.9302 81.6669 75.822 80.982Z" fill="#919B9B"/>
<path d="M83.8279 78.5669C83.9722 78.5669 84.1164 78.6029 84.2967 78.6029V78.5669C84.3328 78.5309 84.3328 78.4588 84.3688 78.4227C84.4049 78.3506 84.5131 78.2786 84.5852 78.2425C84.7655 78.1704 84.9458 78.1704 85.054 78.3506C85.1983 78.639 84.9458 79.1796 84.5852 78.9634C84.3688 78.8192 84.3328 78.4588 84.6573 78.5309C84.7295 78.5309 84.7655 78.5669 84.8016 78.6029C84.8016 78.6029 84.8016 78.675 84.8016 78.6029C84.8016 78.5309 84.8016 78.639 84.7655 78.639C84.6573 78.7111 84.6213 78.7832 84.5131 78.7111C84.2606 78.5309 83.9 78.675 83.7558 78.8913C83.6115 79.1796 83.7197 79.468 83.9361 79.6482C84.9819 80.4051 86.3883 78.8913 85.5589 77.8821C84.8016 76.981 83.1788 77.5577 83.2509 78.7471C83.287 79.3599 83.7558 79.9005 84.3328 80.0447C84.9098 80.1889 85.5228 79.9005 85.8474 79.3959C86.5686 78.2785 85.5589 76.7287 84.2246 77.1612C83.6115 77.3775 83.0706 77.9902 83.1427 78.675C83.2148 79.432 84.2967 79.8284 84.6934 79.0715C85.054 78.4948 84.1525 77.9542 83.8279 78.5669Z" fill="#919B9B"/>
<path d="M105.609 47.1365C110.045 44.6855 113.904 41.4415 117.113 37.5128C117.546 36.9721 116.789 36.2152 116.356 36.7558C113.219 40.6125 109.432 43.7844 105.069 46.1994C104.455 46.5238 104.996 47.4609 105.609 47.1365Z" fill="#919B9B"/>
<path d="M159.559 48.0737C158.765 52.6153 158.441 57.1929 158.657 61.8065C158.693 62.4913 159.775 62.4913 159.739 61.8065C159.523 57.301 159.811 52.7955 160.605 48.3621C160.713 47.6772 159.667 47.3889 159.559 48.0737Z" fill="#919B9B"/>
<path d="M154.042 153.43C154.042 147.916 156.638 142.689 161.074 139.373C161.615 138.977 161.074 138.04 160.533 138.436C155.773 141.968 152.996 147.483 152.996 153.43C152.96 154.115 154.042 154.115 154.042 153.43Z" fill="#919B9B"/>
<path d="M214.447 298.976C215.024 304.167 215.925 309.862 217.368 316.025C219.315 324.351 221.804 331.632 224.292 337.76C223.607 338.373 221.551 339.995 218.522 340.211C216.61 340.355 215.096 339.886 214.23 339.562C212.932 335.056 211.67 330.371 210.516 325.505C208.136 315.485 206.405 305.933 205.143 297.03C208.28 297.679 211.381 298.328 214.447 298.976Z" fill="#191919"/>
<path d="M295.407 295.588C294.938 300.743 294.145 306.474 292.811 312.637C290.935 321.36 288.447 328.929 285.923 335.309C286.283 335.633 288.339 337.58 291.512 337.435C294.253 337.327 296.02 335.705 296.453 335.309C297.282 330.948 298.076 326.55 298.869 322.153C300.6 312.529 302.151 303.049 303.629 293.678C300.889 294.291 298.148 294.94 295.407 295.588Z" fill="#191919"/>
<path d="M230.927 281.207C231.756 286.721 232.73 292.416 233.848 298.256C235.471 306.726 237.31 314.8 239.257 322.441C238.428 322.946 236.769 323.775 234.497 323.919C232.586 324.027 231.071 323.595 230.206 323.27C229.124 318.152 228.078 312.962 227.032 307.771C225.121 298.147 223.354 288.668 221.659 279.296C224.76 279.909 227.826 280.558 230.927 281.207Z" fill="#191919"/>
<path d="M281.811 280.125C280.837 285.568 279.972 291.263 279.214 297.174C278.169 305.32 277.447 313.106 277.015 320.531C277.628 320.927 279.07 321.756 281.126 321.864C283.326 321.936 284.948 321.071 285.561 320.711C285.201 316.458 285.057 311.736 285.273 306.69C285.706 295.48 287.761 285.82 290.033 278.215C287.292 278.828 284.552 279.477 281.811 280.125Z" fill="#191919"/>
<path d="M345.894 159.522C352.205 170.768 347.337 183.203 335.508 214.093C329.81 228.943 319.388 256.228 304.675 295.12C290.214 300.382 266.268 306.87 236.661 304.816C219.459 303.626 205.034 299.914 194.107 296.093C192.484 293.173 186.859 282.252 191.078 271.655C193.422 265.78 198.146 261.563 208.171 256.589C218.053 251.687 235.471 244.802 260.787 243.541C250.869 194.197 267.855 153.755 294.289 144.42C311.635 138.328 337.203 144.059 345.894 159.522Z" fill="white" stroke="#191919" stroke-width="1.77266" stroke-miterlimit="10"/>
<path d="M343.587 163.595C333.128 176.823 330.748 194.593 326.745 210.488C322.454 227.501 317.513 244.478 310.121 260.445C306.046 269.204 301.249 277.639 295.515 285.424C295.119 286.001 296.056 286.541 296.453 285.965C306.514 272.268 313.619 256.733 319.1 240.729C324.654 224.437 328.332 207.641 332.66 191.025C335.112 181.581 338.249 172.138 344.38 164.388C344.777 163.811 344.019 163.054 343.587 163.595Z" fill="#191919"/>
<path d="M194.324 288.271C218.377 297.102 244.595 299.697 269.911 295.768C277.159 294.651 284.336 292.993 291.368 290.83C292.017 290.614 291.765 289.569 291.079 289.785C266.557 297.354 240.231 298.508 215.132 293.173C208.172 291.695 201.284 289.677 194.612 287.226C193.963 286.974 193.675 288.019 194.324 288.271Z" fill="#191919"/>
<path d="M278.998 259.941C285.057 261.923 290.214 265.924 293.676 271.331C294.036 271.907 294.974 271.367 294.613 270.79C291.007 265.167 285.634 260.986 279.287 258.895C278.602 258.679 278.313 259.725 278.998 259.941Z" fill="#191919"/>
<path d="M170.523 306.618C173.408 310.943 176.293 315.304 179.142 319.63C160.678 336.21 158.298 340.932 159.668 342.085C162.409 344.356 182.063 334.263 184.082 333.218C191.403 329.47 196.921 325.829 200.599 323.234C199.301 319.702 197.57 315.737 195.19 311.556C192.052 306.041 188.59 301.391 185.308 297.607C180.368 300.562 175.427 303.59 170.523 306.618Z" fill="#191919"/>
<path d="M278.421 221.662C279.72 224.474 281.09 228.474 281.306 233.304C281.631 240.585 279.251 246.388 277.448 249.74C276.474 251.002 274.743 253.093 272.183 255.363C272.183 255.363 266.377 260.482 257.145 264.41C247.732 268.447 220.361 273.313 183.18 274.25C184.262 278.864 186.21 284.523 189.672 290.614C191.583 293.966 193.675 296.922 195.73 299.481C194.36 301.283 190.465 305.861 182.712 308.744C175.247 311.52 168.395 311.195 165.69 310.979C161.795 307.411 157.792 303.158 154.078 298.075C143.151 283.045 140.591 268.519 140.122 259.184C142.827 257.238 146.793 254.57 151.986 251.723C162.805 245.776 172.722 242.532 180.872 240.117C194.901 236.008 208.316 233.16 239.185 227.934C248.85 226.312 262.229 224.077 278.421 221.662Z" fill="white" stroke="#191919" stroke-width="1.77266" stroke-miterlimit="10"/>
<path opacity="0.19" d="M244.163 227.862C243.117 234.746 240.16 243.685 231 249.236C222.092 254.642 214.627 252.444 196.776 256.769C183.938 259.869 166.953 263.978 162.229 273.097C157.288 282.685 166.628 296.201 182.965 307.303C184.335 307.122 186.066 306.762 187.905 306.041C192.629 304.167 194.937 301.103 195.803 299.769C193.711 297.246 191.547 294.327 189.564 290.975C185.814 284.703 183.794 278.864 182.64 274.142C201.753 273.349 217.801 271.691 229.99 270.105C244.667 268.195 254.837 266.284 264.538 260.806C272.652 256.228 275.898 251.723 277.052 249.993C280.55 244.694 280.838 239.864 280.982 237.161C281.343 230.565 279.179 225.194 277.376 221.806C266.305 223.825 255.234 225.843 244.163 227.862Z" fill="#6C6D6D"/>
<path opacity="0.19" d="M277.737 222.563C277.015 229.267 274.455 239.864 264.249 248.226C257.974 253.381 251.231 255.687 224.761 262.824C213.077 265.96 198.94 269.673 182.856 273.709C203.304 273.493 219.928 271.799 231.865 270.177C244.235 268.483 250.293 267.005 256.568 264.302C262.518 261.743 274.527 256.553 279.432 245.631C284.156 235.034 279.396 225.519 277.737 222.563Z" fill="#6C6D6D"/>
<path opacity="0.22" d="M182.964 274.25C182.82 279.008 183.036 284.451 183.938 290.434C184.804 296.345 186.21 301.644 187.725 306.257C188.951 305.536 190.357 304.563 191.727 303.374C193.386 301.932 194.612 300.562 195.514 299.373C193.422 296.634 191.295 293.462 189.311 289.893C186.102 284.126 184.19 278.792 182.964 274.25Z" fill="#6C6D6D"/>
<path d="M181.305 327.307C184.082 332.75 186.822 338.193 189.599 343.671C171.856 364.505 169.548 370.416 170.883 371.858C173.515 374.741 192.412 362.018 194.359 360.72C201.392 355.999 206.729 351.421 210.263 348.177C209.001 343.743 207.342 338.769 205.034 333.471C202.041 326.55 198.687 320.711 195.549 315.917C190.789 319.738 186.029 323.523 181.305 327.307Z" fill="#191919"/>
<path d="M285.021 220.545C286.283 224.113 287.581 229.087 287.797 235.179C288.122 244.334 285.814 251.615 284.083 255.832C283.145 257.418 281.486 260.049 279.034 262.933C279.034 262.933 273.481 269.385 264.609 274.323C255.557 279.369 229.232 285.532 193.53 286.686C194.576 292.489 196.415 299.589 199.769 307.231C201.608 311.448 203.627 315.16 205.611 318.368C204.313 320.639 200.562 326.37 193.097 330.011C185.921 333.507 179.357 333.11 176.725 332.786C172.974 328.317 169.116 322.946 165.582 316.566C155.051 297.679 152.599 279.405 152.166 267.691C154.763 265.276 158.585 261.887 163.562 258.319C173.984 250.858 183.469 246.749 191.33 243.721C204.781 238.567 217.728 234.999 247.407 228.403C256.567 226.348 269.478 223.573 285.021 220.545Z" fill="white" stroke="#191919" stroke-width="1.77266" stroke-miterlimit="10"/>
<path opacity="0.19" d="M252.095 228.33C251.086 236.981 248.237 248.191 239.438 255.183C230.891 261.996 223.678 259.22 206.549 264.663C194.215 268.556 177.879 273.746 173.335 285.208C168.575 297.247 177.554 314.259 193.241 328.172C194.576 327.956 196.235 327.488 198.002 326.586C202.546 324.244 204.745 320.387 205.575 318.693C203.555 315.521 201.464 311.844 199.552 307.627C195.946 299.734 193.999 292.417 192.917 286.469C211.309 285.46 226.707 283.406 238.464 281.423C252.6 279.044 262.337 276.629 271.677 269.745C279.467 263.978 282.604 258.319 283.686 256.156C287.04 249.488 287.329 243.433 287.473 240.045C287.797 231.755 285.742 225.014 284.011 220.761C273.372 223.248 262.734 225.771 252.095 228.33Z" fill="#6C6D6D"/>
<path opacity="0.19" d="M284.335 221.662C283.65 230.06 281.198 243.397 271.389 253.922C265.33 260.409 258.875 263.293 233.451 272.268C222.199 276.233 208.64 280.882 193.169 285.965C212.823 285.676 228.835 283.586 240.303 281.531C252.203 279.405 258.046 277.566 264.032 274.178C269.766 270.934 281.27 264.446 286.03 250.678C290.538 237.341 285.958 225.411 284.335 221.662Z" fill="#6C6D6D"/>
<path opacity="0.22" d="M193.278 286.65C193.133 292.633 193.35 299.481 194.215 306.978C195.081 314.44 196.379 321.072 197.857 326.839C199.048 325.902 200.382 324.712 201.716 323.198C203.303 321.396 204.493 319.666 205.358 318.188C203.339 314.728 201.283 310.763 199.408 306.258C196.307 299.049 194.432 292.309 193.278 286.65Z" fill="#6C6D6D"/>
<path d="M179.249 164.532C178.564 164.208 177.194 163.595 177.23 162.91C177.302 161.793 181.017 161.036 183.793 161.072C185.669 161.072 189.131 161.469 193.17 164.28C189.383 165.469 183.793 166.551 179.249 164.532Z" fill="white" stroke="#191919" stroke-width="1.77266" stroke-miterlimit="10"/>
<path d="M265.98 117.783C259.128 116.882 252.961 127.154 252.384 128.092C250.293 131.66 250.04 134.039 248.598 140.563C245.1 156.458 243.225 164.532 238.032 169.398C233.343 173.759 227.862 174.805 226.419 175.021C220.253 175.994 214.663 173.687 203.772 169.038C194.576 165.109 193.458 163.667 188.446 163.09C185.885 162.802 178.42 161.973 173.48 166.767C170.306 169.831 168.9 174.733 170.054 175.742C171.532 177.039 177.591 172.462 177.663 172.57C177.699 172.642 175.86 173.507 174.345 175.381C173.588 176.282 172.29 178.229 172.758 178.733C173.588 179.743 178.673 173.615 184.262 174.697C188.085 175.417 188.806 178.878 193.242 179.526C195.838 179.923 198.11 179.13 199.553 178.445C202.077 181.184 206.188 185.077 212.139 188.249C215.673 190.123 228.15 196.575 243.405 192.827C259.597 188.862 267.747 176.21 270.307 172.246C271.75 169.975 282.352 153.034 277.231 134.039C276.33 130.975 273.048 118.72 265.98 117.783Z" fill="white" stroke="#191919" stroke-width="1.77266" stroke-miterlimit="10"/>
<path opacity="0.25" d="M265.258 117.891C262.914 119.117 267.458 127.623 266.881 139.806C266.34 151.52 261.327 160.171 259.092 164.136C256.062 169.434 252.059 176.355 244.09 180.86C233.379 186.916 220.108 186.014 210.66 181.905C207.847 180.68 204.998 176.715 198.795 174.3C196.09 173.255 193.963 172.822 191.474 172.318C185.38 171.128 179.97 170.047 174.958 172.57C172.578 173.795 170.594 175.67 170.738 175.922C170.883 176.174 173.659 174.769 176.112 173.435C173.155 177.364 172.686 178.481 172.902 178.697C173.155 178.914 174.056 178.085 176.364 176.787C178.852 175.417 180.656 174.444 182.855 174.625C183.973 174.733 184.839 175.093 185.344 175.309C187.327 176.174 187.796 177.184 189.779 178.193C191.005 178.806 192.015 179.058 192.556 179.166C193.71 179.418 196.09 179.743 199.228 178.625C201.968 181.509 214.554 194.269 232.982 194.016C242.467 193.872 249.427 190.34 252.168 188.934C267.206 181.112 273.192 167.235 274.707 163.415C279.395 151.592 281.054 134.075 272.471 123.082C270.415 120.414 266.881 117.062 265.258 117.891Z" fill="#6C6D6D"/>
<path d="M170.702 175.742C172.109 173.651 173.948 171.993 176.148 170.804C176.617 170.551 176.184 169.867 175.751 170.119C173.443 171.38 171.496 173.147 170.017 175.345C169.693 175.778 170.414 176.174 170.702 175.742Z" fill="#191919"/>
<path d="M171.135 171.092C172.542 168.894 174.814 167.74 177.085 166.623C177.554 166.407 177.158 165.686 176.689 165.938C174.273 167.092 171.893 168.353 170.414 170.696C170.162 171.128 170.847 171.525 171.135 171.092Z" fill="#191919"/>
<path opacity="0.29" d="M275.608 130.867C275.068 134.508 274.094 139.77 272.363 145.97C268.973 158.225 265.908 169.254 257.902 178.013C247.985 188.826 234.533 191.782 226.816 192.683C232.55 194.016 237.058 193.764 239.907 193.368C261.544 190.34 273.228 167.091 276.402 156.927C276.943 155.125 278.097 151.412 278.241 146.33C278.493 139.554 276.835 134.111 275.608 130.867Z" fill="#6C6D6D"/>
<path opacity="0.26" d="M184.984 174.264C187.039 175.273 189.852 176.391 193.314 177.04C196.055 177.544 198.507 177.652 200.454 177.58C195.514 180.211 192.953 179.887 191.511 179.022C190.609 178.481 189.6 177.4 186.823 175.49C186.066 174.949 185.416 174.516 184.984 174.264Z" fill="#6C6D6D"/>
<path d="M112.065 233.52C112.065 250.821 112.065 268.159 112.065 285.46C112.065 287.55 115.311 287.55 115.311 285.46C115.311 268.159 115.311 250.821 115.311 233.52C115.311 231.466 112.065 231.43 112.065 233.52Z" fill="#161616"/>
<path d="M171.063 232.835C171.063 235.611 171.063 238.386 171.063 241.162C171.063 243.252 174.309 243.252 174.309 241.162C174.309 238.386 174.309 235.611 174.309 232.835C174.309 230.745 171.063 230.745 171.063 232.835Z" fill="#161616"/>
<path d="M67.2754 231.394C84.7657 214.922 102.256 198.414 119.782 181.941C148.091 182.446 176.364 182.951 204.673 183.455C200.057 199.459 195.441 215.426 190.825 231.43C149.642 231.394 108.459 231.394 67.2754 231.394Z" fill="white" stroke="#191919" stroke-width="1.77266" stroke-miterlimit="10"/>
<path d="M68.3214 233.268C99.9482 233.268 131.539 233.268 163.166 233.268C172.037 233.268 180.872 233.268 189.744 233.268C191.835 233.268 191.835 230.024 189.744 230.024C158.117 230.024 126.526 230.024 94.8995 230.024C86.0281 230.024 77.1928 230.024 68.3214 230.024C66.2298 230.024 66.2298 233.268 68.3214 233.268Z" fill="#161616"/>
<path d="M77.5889 232.728C77.5889 268.591 77.5889 304.455 77.5889 340.283C77.5889 350.339 77.5889 360.359 77.5889 370.416C77.5889 372.506 80.8345 372.506 80.8345 370.416C80.8345 334.552 80.8345 298.688 80.8345 262.86C80.8345 252.804 80.8345 242.784 80.8345 232.728C80.8345 230.637 77.5889 230.637 77.5889 232.728Z" fill="#161616"/>
<path d="M176.509 232.728C176.509 268.591 176.509 304.455 176.509 340.283C176.509 350.339 176.509 360.359 176.509 370.416C176.509 372.506 179.754 372.506 179.754 370.416C179.754 334.552 179.754 298.688 179.754 262.86C179.754 252.804 179.754 242.784 179.754 232.728C179.754 230.637 176.509 230.637 176.509 232.728Z" fill="#161616"/>
<path d="M79.2118 299.661C104.672 299.661 130.132 299.661 155.592 299.661C162.805 299.661 170.017 299.661 177.23 299.661C179.321 299.661 179.321 296.417 177.23 296.417C151.77 296.417 126.309 296.417 100.849 296.417C93.6368 296.417 86.4243 296.417 79.2118 296.417C77.1202 296.417 77.1202 299.661 79.2118 299.661Z" fill="#161616"/>
<path d="M204.241 183.455C200.13 199.495 195.406 215.39 189.996 231.033C189.527 232.367 191.619 232.907 192.088 231.61C197.497 215.931 202.221 200.071 206.333 184.032C206.657 182.698 204.602 182.121 204.241 183.455Z" fill="#161616"/>
<path d="M31.5731 373.948C50.7223 373.948 69.8354 373.948 88.9846 373.948C91.0762 373.948 91.0762 370.704 88.9846 370.704C69.8354 370.704 50.7223 370.704 31.5731 370.704C29.4815 370.704 29.4815 373.948 31.5731 373.948Z" fill="#161616"/>
<path d="M97.0265 373.227C101.426 373.227 105.862 373.227 110.261 373.227C112.353 373.227 112.353 369.983 110.261 369.983C105.862 369.983 101.426 369.983 97.0265 369.983C94.9349 369.983 94.9349 373.227 97.0265 373.227Z" fill="#161616"/>
<path d="M154.438 373.696C171.676 373.696 188.914 373.696 206.188 373.696C208.279 373.696 208.279 370.452 206.188 370.452C188.95 370.452 171.712 370.452 154.438 370.452C152.346 370.452 152.346 373.696 154.438 373.696Z" fill="#161616"/>
<path d="M217.98 372.542C221.046 372.542 224.111 372.542 227.212 372.542C229.304 372.542 229.304 369.298 227.212 369.298C224.147 369.298 221.082 369.298 217.98 369.298C215.889 369.298 215.889 372.542 217.98 372.542Z" fill="#161616"/>
<path d="M14.1913 362.522C21.6562 362.522 29.1211 362.522 36.55 362.522C38.6416 362.522 38.6416 359.278 36.55 359.278C29.0851 359.278 21.6201 359.278 14.1913 359.278C12.0997 359.278 12.0997 362.522 14.1913 362.522Z" fill="#161616"/>
<path d="M171.929 224.582C149.678 224.005 127.392 223.464 105.141 222.888C118.34 210.272 131.503 197.621 144.702 185.005C159.92 185.798 175.174 186.591 190.393 187.384C184.226 199.819 178.096 212.183 171.929 224.582Z" fill="white" stroke="#191919" stroke-width="1.77266" stroke-miterlimit="10"/>
<path d="M143.944 184.753C130.998 197.26 118.051 209.804 105.105 222.311C104.528 202.271 103.915 182.194 103.338 162.154C116.465 153.863 129.591 145.573 142.718 137.283C143.079 153.107 143.512 168.93 143.944 184.753Z" fill="white" stroke="#191919" stroke-width="1.77266" stroke-miterlimit="10"/>
<path d="M104.528 164.064C105.574 181.906 106.259 199.784 106.62 217.662C106.62 218.022 107.16 218.022 107.16 217.662C106.8 199.784 106.115 181.906 105.069 164.064C105.033 163.74 104.492 163.74 104.528 164.064Z" fill="#191919"/>
<path d="M104.816 164.136C116.897 156.278 128.978 148.42 141.059 140.563C141.348 140.383 141.095 139.914 140.771 140.094C128.69 147.952 116.609 155.809 104.528 163.667C104.239 163.883 104.492 164.352 104.816 164.136Z" fill="#191919"/>
<path d="M140.915 140.527C140.879 154.909 141.312 169.326 142.249 183.672C142.285 184.032 142.826 184.032 142.79 183.672C141.889 169.29 141.42 154.909 141.456 140.527C141.456 140.203 140.915 140.203 140.915 140.527Z" fill="#191919"/>
<path d="M106.98 218.419C118.809 206.993 130.673 195.567 142.502 184.177C142.754 183.924 142.357 183.564 142.105 183.78C130.276 195.206 118.412 206.632 106.583 218.022C106.367 218.274 106.728 218.671 106.98 218.419Z" fill="#191919"/>
<path d="M161.759 212.291C163.959 208.795 166.159 205.262 168.286 201.694C168.467 201.406 167.998 201.117 167.817 201.406C165.69 204.974 163.49 208.506 161.29 212.003C161.074 212.291 161.543 212.579 161.759 212.291Z" fill="#191919"/>
<path d="M168.142 201.586C170.991 201.694 173.84 201.694 176.689 201.55C177.049 201.55 177.049 201.009 176.689 201.009C173.84 201.117 170.991 201.117 168.142 201.045C167.781 201.045 167.781 201.586 168.142 201.586Z" fill="#191919"/>
<path d="M176.328 201.405C174.706 204.938 173.047 208.47 171.388 212.002C171.244 212.327 171.712 212.579 171.857 212.291C173.516 208.758 175.174 205.226 176.797 201.694C176.941 201.333 176.473 201.081 176.328 201.405Z" fill="#191919"/>
<path d="M161.579 212.579C164.752 213.048 168.106 212.831 171.316 212.687C171.676 212.687 171.676 212.147 171.316 212.147C168.178 212.291 164.86 212.507 161.723 212.074C161.362 212.002 161.218 212.543 161.579 212.579Z" fill="#191919"/>
<path d="M173.407 201.442C171.965 205.046 170.306 208.542 168.43 211.93C168.25 212.219 168.719 212.507 168.899 212.219C170.775 208.759 172.469 205.226 173.948 201.586C174.056 201.261 173.551 201.117 173.407 201.442Z" fill="#191919"/>
<path d="M121.153 217.769C129.086 207.965 137.309 198.378 145.783 189.006C146 188.754 145.639 188.357 145.387 188.61C136.912 197.945 128.69 207.533 120.756 217.373C120.54 217.661 120.936 218.022 121.153 217.769Z" fill="#191919"/>
<path d="M130.745 218.382C137.85 208.47 145.351 198.882 153.212 189.583C153.429 189.33 153.068 188.934 152.815 189.186C144.918 198.522 137.417 208.145 130.276 218.094C130.06 218.382 130.529 218.67 130.745 218.382Z" fill="#191919"/>
<path d="M141.059 219.86C147.226 209.551 153.97 199.603 161.254 190.052C161.471 189.763 161.002 189.511 160.785 189.763C153.501 199.315 146.757 209.263 140.59 219.572C140.41 219.86 140.879 220.148 141.059 219.86Z" fill="#191919"/>
<path d="M149.714 220.761C155.772 209.479 162.949 198.846 171.171 189.042C171.387 188.79 171.027 188.393 170.774 188.646C162.516 198.486 155.304 209.155 149.209 220.473C149.065 220.797 149.534 221.085 149.714 220.761Z" fill="#191919"/>
<path d="M125.768 211.93C135 210.957 144.232 212.111 153.428 213.336C153.789 213.372 153.753 212.831 153.428 212.795C144.268 211.57 135.036 210.38 125.768 211.39C125.444 211.426 125.444 211.966 125.768 211.93Z" fill="#191919"/>
<path d="M130.421 206.668C139.148 206.343 147.875 206.992 156.458 208.65C156.783 208.722 156.927 208.181 156.602 208.145C147.983 206.487 139.184 205.839 130.421 206.163C130.096 206.127 130.096 206.668 130.421 206.668Z" fill="#191919"/>
<path d="M134.604 201.586C143.006 201.045 151.409 201.802 159.595 203.82C159.92 203.892 160.064 203.388 159.739 203.316C151.517 201.261 143.078 200.504 134.604 201.045C134.243 201.081 134.243 201.622 134.604 201.586Z" fill="#191919"/>
<path d="M138.931 196.503C147.009 196.539 155.015 197.368 162.913 198.99C163.238 199.063 163.382 198.522 163.057 198.486C155.123 196.864 147.045 196.035 138.931 195.999C138.607 195.963 138.607 196.503 138.931 196.503Z" fill="#191919"/>
<path d="M143.223 191.782C150.904 191.926 158.55 192.827 166.015 194.521C166.339 194.593 166.483 194.089 166.159 194.016C158.622 192.322 150.94 191.385 143.223 191.277C142.862 191.241 142.862 191.782 143.223 191.782Z" fill="#191919"/>
<path d="M167.962 197.261C164.428 202.451 160.93 207.641 157.396 212.832C157.215 213.12 157.684 213.408 157.864 213.12C161.398 207.93 164.897 202.739 168.431 197.549C168.647 197.224 168.178 196.972 167.962 197.261Z" fill="#191919"/>
<path d="M108.242 189.403C112.75 187.493 117.618 188.574 122.379 188.502C126.382 188.466 130.204 187.348 133.63 185.33C133.919 185.15 133.666 184.681 133.342 184.861C129.122 187.348 124.651 188.141 119.818 187.925C115.779 187.745 111.776 187.348 107.954 188.97C107.665 189.078 107.918 189.547 108.242 189.403Z" fill="#191919"/>
<path d="M120.396 187.168C128.113 182.807 131.683 173.616 139.725 169.759C140.05 169.615 139.761 169.146 139.437 169.29C131.359 173.183 127.824 182.338 120.107 186.7C119.819 186.88 120.071 187.348 120.396 187.168Z" fill="#191919"/>
<path d="M130.204 161.469C128.87 160.423 129.086 158.729 129.844 157.396C130.204 156.747 130.745 156.062 131.358 155.665C132.476 154.945 133.522 155.521 134.388 156.278C134.64 156.494 135.037 156.134 134.784 155.882C132.981 154.368 131.286 154.512 129.808 156.458C128.618 158.044 128.004 160.423 129.808 161.865C130.096 162.081 130.493 161.685 130.204 161.469Z" fill="#191919"/>
<path d="M241.277 135.12C231.396 146.078 228.727 158.116 227.285 164.929C224.652 177.544 227.429 182.59 227.609 206.559C227.682 216.76 227.249 225.014 226.924 230.204C229.16 231.934 243.008 242.243 261.508 238.855C275.212 236.368 283.47 227.789 286.067 224.87C286.68 221.446 287.545 216.4 288.555 210.272C293.892 177.22 296.525 160.459 293.207 148.457C291.224 141.176 286.319 129.642 272.399 117.711C266.557 118.936 252.529 122.685 241.277 135.12Z" fill="#EC615B"/>
<path opacity="0.19" d="M251.338 128.488C254.764 138.725 256.604 147.483 257.685 153.899C260.534 170.876 264.826 196.323 252.745 220.977C248.886 228.835 244.378 234.602 241.205 238.17C245.388 239.143 253.682 240.477 263.564 237.918C275.32 234.89 282.677 228.078 285.706 224.978C288.05 211.57 289.925 200.072 291.368 191.097C293.856 175.309 294.433 170.516 294.181 163.775C293.892 155.125 293.495 146.042 288.302 136.238C283.326 126.866 276.33 121.243 272.038 118.36C268.54 118.973 263.6 120.27 258.371 123.298C255.486 125.028 253.142 126.866 251.338 128.488Z" fill="#6C6D6D"/>
<path opacity="0.18" d="M292.306 145.681C291.656 145.717 293.027 155.701 290.899 169.47C286.968 194.953 274.346 212.615 269.478 218.887C265.403 224.113 259.02 231.322 249.68 238.422C253.033 238.927 257.505 239.143 262.626 238.17C274.779 235.899 282.497 228.438 285.454 225.23C286.211 220.833 287.437 213.949 288.988 205.442C292.63 185.546 293.351 183.167 293.928 176.967C295.515 160.063 293.063 145.681 292.306 145.681Z" fill="#6C6D6D"/>
<path d="M177.735 172.462C177.05 171.994 175.68 171.129 175.824 170.408C176.112 169.254 180.259 169.074 183.253 169.579C185.272 169.903 188.951 170.949 192.809 174.589C188.482 175.202 182.243 175.382 177.735 172.462Z" fill="white" stroke="#191919" stroke-width="1.77266" stroke-miterlimit="10"/>
<path d="M279.539 137.932C272.291 135.805 263.816 145.573 263.059 146.51C260.174 149.935 259.488 152.386 256.784 159.018C250.22 175.237 246.794 183.419 240.303 187.673C234.497 191.493 228.403 191.638 226.78 191.638C219.964 191.601 214.338 188.213 203.375 181.437C194.143 175.706 193.206 173.976 187.868 172.534C185.164 171.813 177.23 169.651 171.063 173.868C167.132 176.535 164.716 181.509 165.798 182.771C167.168 184.393 174.525 180.572 174.561 180.716C174.597 180.788 172.434 181.401 170.486 183.131C169.513 183.96 167.782 185.762 168.178 186.411C168.899 187.637 175.463 182.014 181.305 184.104C185.272 185.51 185.488 189.295 190.14 190.772C192.881 191.638 195.478 191.169 197.136 190.7C199.372 194.052 203.159 198.846 209.001 203.208C212.499 205.803 224.832 214.742 241.962 213.408C260.138 212.002 271.173 200 274.599 196.287C276.582 194.161 290.971 178.049 288.771 157.071C288.447 153.647 287.04 140.167 279.539 137.932Z" fill="white" stroke="#191919" stroke-width="1.77266" stroke-miterlimit="10"/>
<path opacity="0.25" d="M278.746 137.932C276.005 138.833 279.431 148.601 276.654 161.397C274.022 173.688 267.098 181.978 263.96 185.762C259.741 190.845 254.223 197.477 244.811 200.865C232.189 205.406 218.017 202.198 208.532 196.251C205.719 194.449 203.339 189.799 197.028 186.159C194.287 184.573 192.088 183.78 189.455 182.807C183.108 180.5 177.41 178.409 171.604 180.248C168.827 181.113 166.339 182.771 166.483 183.059C166.628 183.383 169.837 182.338 172.722 181.365C168.863 185.005 168.142 186.123 168.322 186.411C168.539 186.699 169.693 185.943 172.398 185.005C175.355 183.96 177.41 183.275 179.79 183.852C180.98 184.14 181.846 184.681 182.387 185.005C184.37 186.231 184.695 187.42 186.642 188.826C187.832 189.691 188.914 190.124 189.491 190.34C190.681 190.808 193.206 191.565 196.776 190.917C199.228 194.449 210.588 210.092 230.53 212.976C240.808 214.453 248.922 211.93 252.132 210.885C269.73 205.19 278.638 191.565 280.946 187.781C288.086 176.103 292.954 157.864 285.598 144.744C283.867 141.464 280.621 137.319 278.746 137.932Z" fill="#6C6D6D"/>
<path d="M166.448 182.879C168.359 180.896 170.595 179.454 173.191 178.589C173.696 178.409 173.48 177.652 172.975 177.796C170.27 178.734 167.854 180.247 165.871 182.302C165.51 182.698 166.087 183.275 166.448 182.879Z" fill="#191919"/>
<path d="M167.745 178.049C169.657 175.922 172.325 175.093 174.994 174.336C175.499 174.192 175.282 173.399 174.777 173.543C172.001 174.372 169.188 175.273 167.204 177.472C166.808 177.869 167.385 178.409 167.745 178.049Z" fill="#191919"/>
<path opacity="0.29" d="M287.654 153.431C286.427 157.18 284.444 162.586 281.523 168.858C275.717 181.221 270.488 192.359 260.282 200.252C247.696 209.984 232.622 210.813 224.147 210.417C230.098 212.832 235.038 213.336 238.176 213.408C262.049 213.913 278.782 191.313 283.975 181.149C284.877 179.347 286.752 175.598 287.834 170.264C289.24 163.091 288.411 157.072 287.654 153.431Z" fill="#6C6D6D"/>
<path opacity="0.26" d="M182.171 183.744C184.19 185.15 187.039 186.808 190.681 188.105C193.566 189.115 196.199 189.619 198.291 189.872C192.485 191.782 189.78 191.025 188.373 189.872C187.508 189.151 186.606 187.817 183.902 185.33C183.216 184.645 182.603 184.105 182.171 183.744Z" fill="#6C6D6D"/>
<path d="M223.642 65.2307C223.246 67.5375 222.849 69.8444 222.524 72.2593C221.118 82.0633 220.541 91.3266 220.505 99.9411C222.488 99.7249 224.436 99.5086 226.419 99.3284C226.203 101.239 225.59 108.231 230.061 115.152C234.281 121.676 240.339 124.055 242.215 124.703C241.998 128.236 241.818 131.732 241.601 135.264C245.496 131.804 250.797 127.731 257.541 124.091C262.698 121.315 267.566 119.405 271.714 118.107C267.062 112.34 265.294 106.898 264.537 103.762C263.239 98.3552 263.491 93.7055 263.744 89.5965C263.996 85.3793 264.609 81.8831 265.15 79.4321C266.845 71.7186 262.41 59.4997 253.574 55.1023C244.847 50.741 231.829 54.4175 223.642 65.2307Z" fill="white" stroke="#161616" stroke-width="1.77266" stroke-miterlimit="10"/>
<path d="M225.59 99.5806C226.599 99.4364 227.645 99.3282 228.655 99.2201C229.016 99.1841 229.016 98.6434 228.655 98.6795C227.573 98.7876 226.527 98.9318 225.445 99.0759C225.121 99.0759 225.265 99.6166 225.59 99.5806Z" fill="#161616"/>
<path d="M258.118 70.8172C253.755 71.9345 252.961 75.7192 247.444 83.6128C241.854 91.6146 238.32 96.6247 232.009 99.5443C227.934 101.419 225.914 100.914 224.111 103.329C221.01 107.51 223.101 114.394 224.941 117.927C227.068 122 230.314 124.451 232.983 126.469C235.543 128.379 237.887 129.641 239.546 130.398C237.779 127.695 237.671 126.866 237.887 126.613C238.464 126.037 240.916 129.136 243.801 128.74C244.631 128.632 246.109 128.163 249.391 123.009C251.627 119.513 253.142 117.098 254.151 113.637C256.351 106.212 253.25 104.194 254.151 94.426C254.296 92.9482 255.305 81.3781 259.416 80.6212C260.895 80.3328 262.41 81.5583 263.131 82.4954C264.645 84.4779 264.465 87.6497 262.59 90.3891C263.203 89.9566 269.081 85.9917 269.009 79.5398C269.009 78.5306 268.973 74.8181 266.16 72.4031C262.951 69.6638 258.479 70.7451 258.118 70.8172Z" fill="#161616" stroke="#161616" stroke-width="1.77266" stroke-miterlimit="10"/>
<path d="M229.052 87.2176C229.888 87.2176 230.566 86.0073 230.566 84.5143C230.566 83.0213 229.888 81.811 229.052 81.811C228.215 81.811 227.537 83.0213 227.537 84.5143C227.537 86.0073 228.215 87.2176 229.052 87.2176Z" fill="#161616"/>
<path d="M217.512 88.4789C218.348 88.4789 219.026 87.2686 219.026 85.7756C219.026 84.2826 218.348 83.0723 217.512 83.0723C216.675 83.0723 215.997 84.2826 215.997 85.7756C215.997 87.2686 216.675 88.4789 217.512 88.4789Z" fill="#161616"/>
<path d="M215.24 81.3425C216.213 80.2252 217.728 80.117 218.81 81.1983C219.315 81.703 220.072 80.91 219.567 80.4414C218.089 78.9997 215.817 79.0357 214.446 80.5856C214.05 81.1263 214.807 81.8832 215.24 81.3425Z" fill="#161616"/>
<path d="M227.069 79.468C228.331 78.4227 229.99 78.5669 231.071 79.7563C231.54 80.2609 232.298 79.504 231.829 78.9994C230.314 77.3774 227.97 77.3053 226.275 78.7111C225.77 79.1436 226.528 79.9005 227.069 79.468Z" fill="#161616"/>
<path d="M222.416 69.5198C222.813 66.9247 223.823 62.6715 226.6 58.2741C227.573 56.7242 229.665 53.4442 232.983 51.2095C239.33 46.9923 249.103 47.3167 256.207 52.507C263.167 57.5893 266.629 66.6723 265.114 75.6834C250.87 73.6649 236.661 71.6104 222.416 69.5198Z" fill="#5222D0"/>
<path d="M199.12 69.8441C221.01 72.6556 242.936 75.467 264.826 78.2424C266.881 78.4947 266.881 75.2507 264.826 74.9984C242.936 72.187 221.01 69.3755 199.12 66.6002C197.064 66.3118 197.064 69.5558 199.12 69.8441Z" fill="#161616"/>
<path d="M240.952 48.5784C246.578 49.8039 250.833 54.3454 251.554 59.7881C252.203 64.5459 250.112 69.3758 246.145 72.3314C252.384 73.1604 258.659 74.0255 264.897 74.8545C265.222 73.1965 265.511 70.6734 265.114 67.7178C264.176 60.7973 260.173 56.3639 258.875 55.0303C257.469 53.5885 252.492 48.7586 245.099 48.3261C243.404 48.254 241.962 48.3982 240.952 48.5784Z" fill="#321693"/>
</svg>
