<svg>

	<!-- Skils  -->
	<symbol id="javascript" viewBox="0 0 116 120" xmlns="http://www.w3.org/2000/svg">
		<path d="M0.254761 0H115.745V120H0.254761V0Z" fill="#F7DF1E"/>
		<path d="M30.6199 100.28L39.4581 94.7229C41.1631 97.8641 42.7142 100.522 46.4346 100.522C50.0009 100.522 52.2493 99.0723 52.2493 93.4342V55.0913H63.1024V93.5936C63.1024 105.274 56.5132 110.59 46.8999 110.59C38.2177 110.59 33.178 105.918 30.6198 100.28" fill="black"/>
		<path d="M68.9998 99.0724L77.8368 93.756C80.1631 97.7035 83.1866 100.603 88.5354 100.603C93.0324 100.603 95.9 98.2669 95.9 95.0448C95.9 91.1783 92.9543 89.8088 87.9926 87.5541L85.2801 86.345C77.4496 82.8819 72.2553 78.5322 72.2553 69.3492C72.2553 60.8913 78.4571 54.4469 88.1481 54.4469C95.0478 54.4469 100.009 56.9442 103.575 63.469L95.1248 69.1073C93.2641 65.6438 91.2491 64.2747 88.1483 64.2747C84.9697 64.2747 82.9539 66.369 82.9539 69.1073C82.9539 72.4905 84.9697 73.8602 89.6207 75.9547L92.3338 77.1629C101.559 81.2713 106.754 85.4595 106.754 94.8836C106.754 105.034 99.0788 110.591 88.7682 110.591C78.6901 110.591 72.1779 105.597 68.9999 99.0724" fill="black"/>
	</symbol>

	<symbol id="typescript" viewBox="0 0 120 120" xmlns="http://www.w3.org/2000/svg"> 
		<path d="M0 60V120H60H120V60V0H60H0V60Z" fill="#007ACC"/>
		<path d="M26.5374 60.3979L26.4993 65.3122H34.3088H42.1184L42.1184 87.5026V109.693H47.6422H53.166V87.5026L53.166 65.3122H60.9755H68.785V60.4931C68.785 57.8264 68.7279 55.5979 68.6517 55.5407C68.5946 55.4645 59.0898 55.4264 47.566 55.4455L26.5946 55.5026L26.5374 60.3979Z" fill="white"/>
		<path d="M96.8264 55.3636C99.874 56.1255 102.198 57.4779 104.331 59.6874C105.436 60.8684 107.074 63.0208 107.207 63.535C107.245 63.6874 102.026 67.1922 98.8644 69.1541C98.7502 69.2303 98.293 68.7351 97.7787 67.9731C96.2359 65.7255 94.6168 64.7541 92.1406 64.5827C88.5025 64.335 86.1597 66.2398 86.1787 69.4208C86.1787 70.3541 86.3121 70.9065 86.693 71.6684C87.493 73.3255 88.9787 74.316 93.6454 76.3351C102.236 80.0303 105.912 82.4684 108.198 85.935C110.75 89.8017 111.322 95.9731 109.588 100.564C107.683 105.554 102.96 108.945 96.3121 110.068C94.2549 110.43 89.3787 110.373 87.1692 109.973C82.3502 109.116 77.7787 106.735 74.9597 103.611C73.8549 102.392 71.7025 99.2112 71.8359 98.9827C71.893 98.9065 72.3883 98.6017 72.9406 98.2779C73.474 97.9731 75.493 96.8112 77.3978 95.7065L80.8454 93.7065L81.5692 94.7731C82.5787 96.316 84.7883 98.4303 86.1216 99.135C89.9502 101.154 95.2073 100.868 97.7978 98.5446C98.9025 97.535 99.3597 96.4874 99.3597 94.9446C99.3597 93.5541 99.1883 92.9446 98.4644 91.897C97.5311 90.5636 95.6263 89.4398 90.2168 87.097C84.0263 84.4303 81.3597 82.7731 78.9216 80.1446C77.5121 78.6208 76.1787 76.1827 75.6264 74.1446C75.1692 72.4493 75.0549 68.2017 75.4168 66.4874C76.693 60.5065 81.2073 56.335 87.7216 55.097C89.8359 54.697 94.7502 54.8493 96.8264 55.3636Z" fill="white"/>
   </symbol>

	<symbol id="mongodb" viewBox="0 0 52 120" xmlns="http://www.w3.org/2000/svg">
		<path d="M50.7409 47.7544C44.7206 19.869 32.1565 12.4436 28.9684 7.19463C27.2356 4.33931 25.4687 0 25.4687 0C25.296 2.47333 24.9897 4.03976 22.9795 5.91949C18.9537 9.68719 1.84559 24.3238 0.408565 56.0098C-0.931608 85.5523 21.087 103.772 24.0134 105.655C26.2488 106.809 28.9867 105.677 30.2955 104.619C40.9069 96.9681 55.4237 76.5686 50.7279 47.7544" fill="#10AA50"/>
		<path d="M26.3807 89.9189C25.8284 97.2345 25.4305 101.491 24.0249 105.663C24.0249 105.663 24.9515 112.624 25.5954 120H27.891C28.439 114.805 29.2754 109.648 30.396 104.556C27.4224 103.025 26.4932 96.3358 26.3807 89.9189Z" fill="#B8C4C2"/>
		<path d="M30.3943 104.561C27.3894 103.104 26.5204 96.2809 26.3869 89.9189C27.1272 79.43 27.3413 68.9075 27.0282 58.395C26.8711 52.8795 27.1067 7.30163 25.7351 0.62915C26.29 1.93452 27.6302 5.00144 28.9704 7.19171C32.1716 12.4434 44.7252 19.8689 50.7403 47.757C55.4283 76.497 40.9979 96.8607 30.3943 104.561Z" fill="#12924F"/>
	</symbol>	

	<symbol id="postgrest" viewBox="0 0 118 120" xmlns="http://www.w3.org/2000/svg">
		<path d="M116.889 71.8826C116.189 69.7638 114.357 68.2881 111.987 67.9339C110.869 67.7671 109.59 67.8382 108.075 68.1504C105.435 68.695 103.477 68.9024 102.048 68.9425C107.443 59.8342 111.829 49.4475 114.355 39.6702C118.438 23.8605 116.256 16.6581 113.706 13.4004C106.958 4.77748 97.1119 0.145172 85.234 0.00343171C78.8976 -0.0740469 73.3351 1.177 70.4333 2.07667C67.7316 1.59995 64.8266 1.33378 61.7785 1.28456C56.0647 1.19341 51.0163 2.43899 46.7026 4.99898C44.3144 4.19138 40.4815 3.0529 36.0552 2.32642C25.6448 0.617335 17.2543 1.94906 11.1171 6.28467C3.68552 11.5341 0.240461 20.6547 0.877608 33.3931C1.07996 37.4374 3.34234 49.7429 6.90453 61.413C8.95179 68.1208 11.1349 73.691 13.3931 77.9706C16.5957 84.039 20.0226 87.6126 23.8696 88.896C26.0258 89.6143 29.9435 90.1174 34.064 86.6856C34.5863 87.3182 35.2831 87.9467 36.2079 88.5305C37.3823 89.2711 38.8184 89.8763 40.2527 90.235C45.4214 91.5271 50.2629 91.2039 54.3934 89.3928C54.419 90.1274 54.4386 90.8293 54.455 91.4355C54.4823 92.4185 54.5097 93.3825 54.5457 94.284C54.7904 100.379 55.2051 105.119 56.4339 108.435C56.5013 108.617 56.592 108.895 56.6877 109.19C57.3007 111.067 58.3257 114.209 60.9335 116.669C63.6339 119.218 66.9003 120 69.8919 120C71.3923 120 72.8238 119.803 74.0794 119.534C78.5549 118.575 83.638 117.114 87.315 111.878C90.7915 106.928 92.4815 99.4736 92.7873 87.7274C92.8269 87.3952 92.8634 87.078 92.8985 86.7758L92.9714 86.1551L93.7904 86.2271L94.0014 86.2412C98.5599 86.449 104.134 85.4824 107.557 83.8922C110.262 82.6371 118.93 78.0608 116.889 71.8826Z" fill="black"/>
		<path d="M109.095 73.0839C95.5413 75.88 94.6093 71.291 94.6093 71.291C108.92 50.0559 114.903 23.1011 109.74 16.5041C95.6557 -1.49149 71.275 7.01931 70.868 7.23989L70.7372 7.26359C68.0592 6.70757 65.0626 6.37669 61.6941 6.32154C55.5614 6.22128 50.909 7.92945 47.3788 10.6066C47.3788 10.6066 3.88593 -7.31104 5.90903 33.141C6.33926 41.7466 18.2436 98.2563 32.4423 81.1878C37.632 74.9462 42.6466 69.669 42.6466 69.669C45.1369 71.3234 48.1185 72.1674 51.244 71.8643L51.4869 71.6583C51.4113 72.4331 51.4459 73.191 51.584 74.0884C47.9261 78.1752 49.0013 78.8926 41.6891 80.3979C34.2899 81.9229 38.6364 84.6374 41.4744 85.3474C44.9149 86.2075 52.8743 87.4261 58.2522 79.8975L58.038 80.7566C59.4709 81.9047 60.4772 88.2233 60.3086 93.9517C60.1399 99.6796 60.0274 103.612 61.1563 106.684C62.2861 109.756 63.4114 116.667 73.0242 114.608C81.056 112.887 85.2184 108.426 85.7977 100.985C86.2083 95.6958 87.1385 96.4779 87.1968 91.7485L87.9429 89.5099C88.8029 82.3394 88.0796 80.026 93.0278 81.1021L94.231 81.2078C97.8725 81.3732 102.64 80.6217 105.438 79.3214C111.462 76.5258 115.035 71.8575 109.095 73.0839H109.095Z" fill="#336791"/>
		<path d="M49.9253 36.9892C48.7039 36.8192 47.5978 36.9765 47.0381 37.4003C46.7236 37.6387 46.6261 37.9149 46.5997 38.1049C46.5295 38.6085 46.8822 39.1654 47.0992 39.4526C47.7126 40.2656 48.6086 40.8244 49.4955 40.9475C49.6241 40.9657 49.7521 40.9739 49.8793 40.9739C51.3582 40.9739 52.7032 39.8222 52.8216 38.9722C52.9698 37.9076 51.4243 37.1979 49.9253 36.9897" fill="white"/>
		<path d="M90.3868 37.0233C90.2701 36.1888 88.7853 35.9509 87.3761 36.1469C85.9687 36.3429 84.6042 36.9782 84.7181 37.8145C84.8092 38.4649 85.9837 39.5751 87.3738 39.5751C87.4914 39.5751 87.6099 39.5673 87.7293 39.5505C88.6572 39.422 89.3381 38.8327 89.6617 38.4931C90.1539 37.9754 90.4392 37.3984 90.3868 37.0233Z" fill="white"/>
		<path d="M113.606 72.7665C113.089 71.2037 111.426 70.701 108.662 71.2716C100.456 72.9652 97.5173 71.7921 96.5525 71.0815C102.931 61.3648 108.178 49.619 111.009 38.6604C112.349 33.4693 113.09 28.6483 113.151 24.7188C113.218 20.406 112.483 17.2366 110.968 15.3006C104.86 7.49576 95.8953 3.30918 85.0437 3.19433C77.5834 3.11047 71.2803 5.01963 70.0584 5.55651C67.4852 4.91663 64.68 4.52377 61.626 4.47364C56.0257 4.38294 51.1846 5.72378 47.1767 8.45695C45.4357 7.80886 40.9365 6.2643 35.4341 5.37786C25.9216 3.84652 18.3624 5.00687 12.9681 8.82839C6.53144 13.3887 3.55991 21.5403 4.13553 33.0564C4.32923 36.9308 6.53691 48.8497 10.0207 60.2642C14.6065 75.2877 19.5916 83.7926 24.8364 85.5422C25.4503 85.7469 26.1581 85.89 26.9388 85.89C28.8521 85.89 31.1979 85.0277 33.6385 82.0935C36.6153 78.5225 39.6946 75.0381 42.8726 71.6448C44.9344 72.7514 47.1995 73.3694 49.5161 73.4314C49.5207 73.492 49.5266 73.5526 49.5321 73.6128C49.1333 74.0883 48.7428 74.5707 48.3608 75.0598C46.7556 77.0975 46.4215 77.5218 41.2546 78.5856C39.7848 78.8891 35.8812 79.6935 35.8238 82.4299C35.7618 85.4196 40.4384 86.6752 40.9711 86.8083C42.8279 87.2732 44.6167 87.5024 46.3226 87.5024C50.4714 87.5024 54.1224 86.1388 57.0402 83.5004C56.9504 94.1588 57.3948 104.661 58.6745 107.861C59.7228 110.481 62.2832 116.883 70.3711 116.882C71.5579 116.882 72.8641 116.744 74.3011 116.436C82.7421 114.627 86.4078 110.896 87.8256 102.671C88.5845 98.2751 89.8866 87.7786 90.4991 82.1482C91.7916 82.5516 93.4556 82.7361 95.2545 82.7357C99.0062 82.7357 103.335 81.9386 106.05 80.6784C109.1 79.2619 114.604 75.7863 113.606 72.7665ZM93.5044 34.7199C93.4766 36.3821 93.2478 37.8911 93.0053 39.4662C92.7442 41.1602 92.4743 42.9117 92.4064 45.0378C92.3394 47.1069 92.5979 49.2581 92.8476 51.3386C93.3526 55.5407 93.8708 59.8667 91.865 64.1353C91.5318 63.545 91.235 62.9348 90.9763 62.3082C90.727 61.7039 90.1855 60.7331 89.4358 59.3896C86.5194 54.1593 79.6899 41.9113 83.186 36.9135C84.2274 35.4259 86.8704 33.8964 93.5044 34.7199ZM85.463 6.56009C95.1861 6.77475 102.877 10.4121 108.323 17.3706C112.499 22.708 107.9 46.9939 94.5863 67.9455C94.4524 67.7752 94.3178 67.6055 94.1825 67.4364L94.0139 67.2258C97.4544 61.5439 96.7817 55.9222 96.1828 50.938C95.9367 48.8926 95.7043 46.9606 95.7635 45.1458C95.8246 43.2225 96.0789 41.5727 96.325 39.9775C96.6272 38.0118 96.9348 35.9778 96.8501 33.5801C96.9134 33.3285 96.9389 33.0313 96.9057 32.6786C96.6892 30.3793 94.064 23.4978 88.7134 17.2695C85.7866 13.8627 81.5184 10.0503 75.6907 7.4789C78.1973 6.95933 81.6251 6.47486 85.463 6.56009ZM31.0557 79.946C28.3667 83.1791 26.51 82.5593 25.8993 82.356C21.9205 81.0289 17.3037 72.6193 13.2333 59.2838C9.71126 47.745 7.65306 36.1419 7.4899 32.8882C6.97581 22.5982 9.47016 15.4268 14.9041 11.573C23.7476 5.30175 38.2872 9.05536 44.1295 10.9591C44.0457 11.042 43.9582 11.1195 43.8752 11.2038C34.2879 20.8859 34.5153 37.428 34.539 38.4393C34.5381 38.8295 34.5709 39.3818 34.6156 40.1416C34.7806 42.924 35.0878 48.1023 34.2674 53.9665C33.5054 59.416 35.1853 64.7497 38.8756 68.6004C39.2543 68.9948 39.6524 69.3702 40.0683 69.7252C38.4257 71.4844 34.8558 75.3748 31.0557 79.946ZM41.3006 66.2765C38.3264 63.1728 36.9755 58.8559 37.594 54.4314C38.4599 48.2367 38.1404 42.8415 37.9686 39.9429C37.9445 39.5373 37.923 39.1818 37.9107 38.9015C39.3113 37.6595 45.8017 34.1821 50.4304 35.2427C52.5423 35.7262 53.8294 37.1646 54.3645 39.6384C57.1336 52.4466 54.7309 57.7848 52.8003 62.0749C52.4024 62.9586 52.0264 63.794 51.7056 64.6581L51.4567 65.3262C50.8269 67.0153 50.2408 68.5858 49.8775 70.077C46.7155 70.0679 43.6396 68.7171 41.3006 66.276V66.2765ZM41.786 83.5497C40.8627 83.319 40.0323 82.9184 39.5451 82.5862C39.9521 82.3948 40.6763 82.1341 41.9323 81.8752C48.0107 80.6242 48.9496 79.7409 50.9996 77.1381C51.4695 76.541 52.0023 75.8647 52.7401 75.0407L52.741 75.0398C53.8399 73.8092 54.3426 74.018 55.2541 74.3962C55.9929 74.7016 56.7125 75.6277 57.0042 76.6468C57.1423 77.1281 57.2972 78.0414 56.79 78.7524C52.5077 84.7483 46.2675 84.6713 41.786 83.5497ZM73.5974 113.152C66.1613 114.745 63.5283 110.951 61.7933 106.614C60.6735 103.813 60.1229 91.1863 60.5135 77.2415C60.5185 77.056 60.4921 76.8769 60.441 76.7083C60.3954 76.3753 60.3259 76.046 60.2332 75.723C59.6526 73.6939 58.2375 71.9967 56.5398 71.293C55.8653 71.0136 54.6274 70.5009 53.1398 70.8815C53.457 69.5743 54.0071 68.0981 54.6037 66.4998L54.8539 65.8276C55.1356 65.0696 55.4893 64.2844 55.863 63.4531C57.8833 58.9648 60.6502 52.8171 57.6473 38.9288C56.5225 33.7268 52.7661 31.1864 47.0719 31.7766C43.6583 32.1299 40.535 33.5071 38.9772 34.297C38.6422 34.4665 38.3359 34.6306 38.0497 34.7901C38.4845 29.5489 40.1271 19.7538 46.2716 13.5564C50.1405 9.65513 55.2928 7.72819 61.5704 7.83211C73.9397 8.03446 81.8716 14.3822 86.3481 19.6722C90.2056 24.2302 92.2943 28.822 93.1279 31.2986C86.859 30.6609 82.5954 31.8983 80.4342 34.9884C75.7321 41.7099 83.0065 54.7554 86.5026 61.0253C87.1438 62.1742 87.6971 63.1673 87.8712 63.5894C89.0097 66.3485 90.4836 68.1907 91.5596 69.5351C91.8896 69.9472 92.2096 70.3468 92.4529 70.696C90.5543 71.2433 87.1438 72.508 87.4546 78.8298C87.204 82.0019 85.4215 96.8532 84.5159 102.1C83.3205 109.032 80.7696 111.614 73.5974 113.152V113.152ZM104.636 77.6321C102.695 78.5331 99.4456 79.209 96.3592 79.3544C92.9502 79.5139 91.2146 78.9725 90.8063 78.6393C90.6149 74.6998 92.081 74.2882 93.6329 73.8525C93.8767 73.7842 94.1146 73.7172 94.3443 73.637C94.487 73.7532 94.6433 73.8685 94.8147 73.9815C97.5547 75.7899 102.442 75.985 109.341 74.5608L109.417 74.5457C108.486 75.4158 106.894 76.5834 104.636 77.6321Z" fill="white"/>
	</symbol>

	<symbol id="jest" viewBox="0 0 110 120" xmlns="http://www.w3.org/2000/svg">
		<path d="M102.525 59.083C102.525 52.9145 97.5238 47.9135 91.3553 47.9135C90.9581 47.9135 90.567 47.9348 90.1809 47.9756L105.522 2.72803H40.327L55.647 47.936C55.421 47.9218 55.1945 47.9144 54.968 47.9139C48.7995 47.9139 43.7986 52.914 43.7986 59.0834C43.7986 64.0695 47.0665 68.2911 51.5764 69.7273C49.1945 73.8533 46.197 77.5697 42.7939 80.7807C38.1662 85.146 32.8702 88.4565 27.1422 90.496C20.3223 86.9926 17.102 79.2012 20.0077 72.3698C20.3359 71.5981 20.6709 70.8162 20.9911 70.0377C25.9317 68.8846 29.6137 64.4555 29.6137 59.1633C29.6137 52.9944 24.6128 47.9939 18.4439 47.9939C12.2749 47.9939 7.2744 52.9944 7.2744 59.1633C7.2744 62.9461 9.15624 66.2876 12.0334 68.3081C9.26891 74.6024 5.20505 81.1901 3.93887 88.8251C2.4214 97.9749 3.93377 107.688 11.8476 113.173C30.2783 125.947 50.2847 105.254 71.3786 100.052C79.0234 98.1671 87.4151 98.4707 94.1504 94.5701C99.2083 91.6406 102.543 86.7855 103.489 81.3351C104.424 75.9507 103.061 70.5896 99.9269 66.2425C101.608 64.2361 102.528 61.7009 102.525 59.083Z" fill="#99425B"/>
		<path d="M100.802 80.8682C99.9803 85.6005 97.0576 89.7336 92.7837 92.2094C88.7993 94.5169 84.025 95.2057 78.9696 95.9344C76.2617 96.3247 73.4614 96.7291 70.7258 97.4034C63.4927 99.187 56.4866 102.667 49.7118 106.032C36.1528 112.767 24.4434 118.583 13.4023 110.931C5.31458 105.325 5.68789 94.9544 6.63008 89.2715C7.5034 84.006 9.86442 79.1569 12.1472 74.4676C12.5361 73.6706 12.9219 72.8721 13.3045 72.0721C14.4553 72.5321 15.6627 72.835 16.8943 72.9726C14.5703 80.6424 18.2251 88.9819 25.8958 92.9225L26.946 93.462L28.0574 93.0662C34.1217 90.9063 39.7099 87.4411 44.6662 82.7645C47.8699 79.7419 50.6246 76.3979 52.8887 72.8247C53.577 72.9285 54.2722 72.9807 54.9683 72.9807C62.0088 72.9807 67.8389 67.7174 68.7411 60.9197C71.623 60.8142 74.6838 60.8134 77.5823 60.9188C78.4837 67.7174 84.3146 72.9811 91.3551 72.9811C94.299 72.9811 97.0295 72.0585 99.2792 70.4913C100.841 73.6882 101.424 77.2852 100.802 80.8682ZM18.4445 50.7217C23.0994 50.7217 26.886 54.5088 26.886 59.1637C26.886 60.8355 26.3954 62.3946 25.5531 63.7076C24.15 65.896 21.7648 67.396 19.0245 67.5831C18.8327 67.5958 18.6393 67.6052 18.4445 67.6052C17.4071 67.6052 16.4135 67.416 15.4946 67.0724C13.6442 66.3766 12.0946 65.0568 11.1132 63.3406C10.3844 62.0692 10.0015 60.6291 10.0026 59.1637C10.0026 54.5088 13.7897 50.7217 18.4445 50.7217ZM46.5272 59.0833C46.5272 54.8541 49.6535 51.3425 53.7157 50.7353C54.1247 50.6737 54.5431 50.6418 54.9687 50.6418C57.675 50.6418 60.0845 51.9237 61.6296 53.9102C62.0166 54.4055 62.3471 54.9424 62.6151 55.511C63.1398 56.6287 63.4113 57.8485 63.4102 59.0833C63.4102 59.7581 63.3286 60.4141 63.1785 61.0434C62.3558 64.4873 59.419 67.12 55.8203 67.4823C55.5406 67.5104 55.2565 67.5248 54.9687 67.5248C53.345 67.5262 51.7558 67.0563 50.3938 66.1723C48.0697 64.6668 46.5272 62.0523 46.5272 59.0833ZM81.7597 49.0448C79.9227 50.7983 78.6006 53.021 77.9369 55.4723C74.7551 55.355 71.57 55.355 68.3882 55.4723C67.6739 52.8226 66.1934 50.4849 64.2015 48.7094L72.9368 31.0466L81.7597 49.0453V49.0448ZM44.1322 5.45675H101.717L88.1161 45.5703C87.5309 45.7104 86.9556 45.8887 86.3937 46.1039L72.958 18.6956L59.4841 45.9402C58.8967 45.7386 58.2964 45.5768 57.6873 45.4559L44.1322 5.45675ZM99.7966 59.0837C99.7966 59.9298 99.6703 60.747 99.4378 61.5187C98.886 63.3355 97.7401 64.9144 96.1839 66.0023C94.7694 66.9949 93.0831 67.5268 91.3551 67.5252C87.4575 67.5252 84.1696 64.8691 83.2027 61.2721C83.0107 60.5585 82.9135 59.8227 82.9136 59.0837C82.9136 57.9298 83.1466 56.8294 83.5675 55.8269C83.7847 55.3139 84.0522 54.8237 84.366 54.3634C85.8852 52.121 88.4486 50.6422 91.3551 50.6422C91.6217 50.6422 91.8844 50.6558 92.1451 50.6805C96.4309 51.0797 99.797 54.695 99.797 59.0837H99.7966ZM105.253 59.0837C105.253 52.2987 100.364 46.6375 93.9253 45.4283L109.328 0H36.5223L51.9486 45.5201C45.7334 46.9032 41.0713 52.4573 41.0713 59.0833C41.0713 64.0588 43.7006 68.4287 47.6412 70.8846C45.7457 73.7086 43.4982 76.366 40.9225 78.7963C36.8374 82.6497 32.2867 85.5724 27.3805 87.4955C22.4387 84.3913 20.3498 78.537 22.519 73.4374L22.6891 73.0377L23.008 72.2877C28.4358 70.3943 32.3419 65.2284 32.3419 59.1637C32.3419 51.5002 26.1075 45.2658 18.4445 45.2658C10.7811 45.2658 4.54671 51.5002 4.54671 59.1637C4.54671 63.0315 6.13688 66.5342 8.6956 69.0563C8.21838 70.0674 7.73395 71.0751 7.24234 72.0793C4.90258 76.8843 2.25116 82.3304 1.24817 88.3786C-0.743372 100.39 2.46928 109.992 10.2947 115.415C15.0431 118.706 19.8655 120 24.7181 120C33.8552 120 43.0985 115.409 52.1391 110.919C58.6499 107.685 65.3826 104.341 72.0328 102.701C74.5074 102.091 77.0534 101.723 79.749 101.335C85.0948 100.563 90.6221 99.7662 95.5185 96.9306C101.194 93.6431 105.079 88.1286 106.178 81.8019C107.121 76.3702 105.986 70.9301 103.218 66.316C104.552 64.1395 105.256 61.636 105.253 59.0833L105.253 59.0837Z" fill="white"/>
	</symbol>

	<symbol id="express" viewBox="0 0 120 28" xmlns="http://www.w3.org/2000/svg">
		<path d="M37.2184 27.389V1.13479H38.6425V5.2646C38.8106 5.08147 38.9659 4.88696 39.1073 4.68244C40.2967 2.21481 42.8053 0.65744 45.5441 0.688199C48.791 0.591363 51.4295 1.79328 52.98 4.68244C53.9667 6.4773 54.5097 8.48218 54.5636 10.5297C54.6175 12.5771 54.1808 14.6078 53.2899 16.4521C51.8453 19.6899 48.2772 21.2996 44.4572 20.7084C43.2684 20.6073 42.1239 20.2101 41.1281 19.553C40.1322 18.8959 39.3169 17.9998 38.7564 16.9465V27.3878L37.2184 27.389ZM38.6425 10.422L38.9615 13.5048C39.5243 17.0138 41.5988 19.0872 44.856 19.4768C46.3856 19.7283 47.955 19.4416 49.2968 18.6654C50.6386 17.8893 51.6698 16.6718 52.2144 15.2206C53.4813 12.2015 53.3879 8.78376 51.9638 5.83536C51.3825 4.53442 50.3935 3.45805 49.1464 2.7689C47.8992 2.07975 46.4616 1.81527 45.0508 2.01544C43.7266 2.11177 42.4652 2.61814 41.4419 3.46419C40.4187 4.31024 39.6843 5.45398 39.3408 6.73652C39.0376 7.95022 38.8044 9.18038 38.6425 10.4209V10.422ZM83.6409 13.9902C83.4249 15.8387 82.5449 17.5459 81.1646 18.7942C79.7842 20.0425 77.9974 20.7471 76.1366 20.7767C70.1646 21.0775 67.362 17.1117 66.9166 12.5353C66.6068 10.0501 67.0102 7.52805 68.0797 5.26346C68.8241 3.70995 70.0438 2.43377 71.5619 1.61978C73.0801 0.805789 74.8181 0.496266 76.5239 0.736048C78.1456 0.873891 79.6829 1.51825 80.9182 2.57794C82.1535 3.63763 83.0243 5.05897 83.4073 6.64082C83.7107 8.08179 83.934 9.53848 84.0761 11.0042H68.3919C68.1014 15.1534 70.3309 18.4891 73.4912 19.2934C77.4273 20.2618 80.7916 18.5563 82.0129 14.8139C82.284 13.8535 82.7785 13.7179 83.6511 13.9902H83.6409ZM68.3805 9.6758H82.4093C82.3216 5.25548 79.5692 2.04278 75.8358 2.00632C71.6206 1.93796 68.5639 5.02193 68.3805 9.6758ZM86.5403 14.087H87.9154C87.9659 15.1001 88.2949 16.0796 88.8661 16.9177C89.4373 17.7559 90.2287 18.4203 91.1531 18.8377C92.3139 19.3601 93.5775 19.614 94.8499 19.5804C96.1224 19.5469 97.3708 19.2268 98.5025 18.644C99.1193 18.3663 99.6361 17.9059 99.9828 17.325C100.33 16.7441 100.49 16.0708 100.441 15.396C100.477 14.7452 100.299 14.1006 99.9354 13.5599C99.5715 13.0192 99.0413 12.6119 98.425 12.3998C96.9121 11.837 95.3034 11.5271 93.762 11.0327C92.1581 10.576 90.5897 10.0026 89.0694 9.31693C86.5858 8.10476 86.432 3.38368 89.2437 1.88898C90.6834 1.07658 92.3036 0.637626 93.9565 0.612155C95.6094 0.586683 97.2424 0.975507 98.7064 1.74315C100.522 2.7457 101.526 4.77016 101.228 6.82424H100.048C100.048 6.76728 99.9414 6.71715 99.9414 6.65905C99.7955 2.8995 96.6352 1.72378 93.2425 2.05417C92.2172 2.16809 91.2454 2.47797 90.334 2.93595C89.7861 3.18616 89.3296 3.60046 89.0275 4.12154C88.7254 4.64262 88.5928 5.2447 88.6479 5.84448C88.649 6.4447 88.8361 7.02984 89.1833 7.51945C89.5305 8.00905 90.0209 8.37909 90.5869 8.5787C92.0679 9.12212 93.6401 9.47074 95.1724 9.89682L98.875 10.8652C99.7166 11.1414 100.454 11.6666 100.991 12.3712C101.528 13.0759 101.838 13.9269 101.88 14.8116C102.177 16.7996 101.163 18.7534 99.3695 19.6591C96.1317 21.491 90.7988 21.0069 88.4235 18.6907C87.2079 17.4683 86.53 15.8084 86.5437 14.0859L86.5403 14.087ZM119.328 6.82538H118.038C118.038 6.65107 117.97 6.4836 117.951 6.35031C117.93 5.38361 117.578 4.45339 116.953 3.71559C116.328 2.9778 115.468 2.47728 114.518 2.29797C112.726 1.7839 110.814 1.87602 109.079 2.56C108.393 2.75629 107.79 3.16932 107.358 3.73732C106.926 4.30533 106.69 4.9978 106.685 5.71119C106.66 6.41167 106.878 7.09913 107.302 7.65733C107.726 8.21554 108.33 8.61022 109.011 8.77465L114.906 10.2876C115.543 10.4405 116.171 10.6314 116.785 10.8595C118.665 11.543 119.941 13.2884 119.998 15.2832C120.026 16.2597 119.758 17.2218 119.23 18.0432C118.701 18.8647 117.936 19.507 117.036 19.8858C115.668 20.5073 114.185 20.8361 112.682 20.8512C111.18 20.8663 109.691 20.5674 108.31 19.9735C107.175 19.4841 106.217 18.6586 105.565 17.6081C104.914 16.5577 104.599 15.3329 104.665 14.0984H105.925C106.399 16.3826 107.967 18.2852 110.119 19.1852C112.272 20.0852 114.729 19.8642 116.686 18.5973C117.273 18.2919 117.761 17.8247 118.091 17.2509C118.421 16.677 118.579 16.0207 118.548 15.3596C118.577 14.7083 118.393 14.0653 118.024 13.5281C117.654 12.9909 117.12 12.5887 116.502 12.3827C114.989 11.8199 113.38 11.5203 111.839 11.0156C110.226 10.5659 108.648 9.99898 107.118 9.31921C104.693 8.12641 104.5 3.44406 107.263 1.9505C108.721 1.10401 110.373 0.649254 112.058 0.630488C113.743 0.611721 115.405 1.02958 116.881 1.84341C117.725 2.34725 118.405 3.0857 118.837 3.96882C119.269 4.85195 119.435 5.84165 119.314 6.8174L119.328 6.82538ZM34.875 20.3028C34.3673 20.4948 33.807 20.4942 33.2997 20.3014C32.7924 20.1085 32.3732 19.7366 32.1214 19.2558L27.1086 12.3234L26.3818 11.3551L20.5647 19.2661C20.3276 19.7261 19.9312 20.0842 19.4494 20.2733C18.9676 20.4624 18.4335 20.4696 17.9467 20.2937L25.4408 10.2397L18.4685 1.15529C19.5029 0.781618 20.6559 1.18719 21.2312 2.12366L26.4262 9.14149L31.652 2.15101C31.8908 1.69882 32.2876 1.35019 32.7667 1.17143C33.2458 0.992676 33.774 0.996258 34.2506 1.1815L31.5449 4.7713L27.8799 9.54137C27.7782 9.63221 27.6968 9.7435 27.6411 9.86797C27.5854 9.99244 27.5565 10.1273 27.5565 10.2637C27.5565 10.4 27.5854 10.5349 27.6411 10.6593C27.6968 10.7838 27.7782 10.8951 27.8799 10.9859L34.8601 20.3028H34.875ZM66.6944 1.05846V2.42557C65.7138 2.36125 64.7306 2.50325 63.8083 2.84241C62.886 3.18157 62.0451 3.71035 61.3398 4.39462C60.6345 5.07889 60.0805 5.90344 59.7135 6.81506C59.3466 7.72668 59.1749 8.70511 59.2095 9.68719C59.2095 12.8802 59.2095 16.0731 59.2095 19.2661V20.3518H57.823V1.1439H59.1901V5.08004C60.8671 2.20911 63.4555 1.1439 66.7035 1.06643L66.6944 1.05846ZM0.00227889 10.1144L0.612921 7.0988C2.28991 1.13593 9.12545 -1.34537 13.8283 2.3481C16.5819 4.51041 17.2689 7.57387 17.1344 11.0258H1.62116C1.37053 17.1915 5.81933 20.9146 11.5099 19.0143C13.3851 18.3307 14.7967 16.7722 15.2615 14.8355C15.5623 13.8671 16.059 13.7008 16.9681 13.9811C16.8165 15.1615 16.3992 16.2921 15.7476 17.2881C15.096 18.284 14.2271 19.1192 13.2063 19.7309C11.5197 20.6533 9.58459 21.0187 7.67775 20.775C5.77091 20.5313 3.98995 19.6909 2.58953 18.374C1.2042 16.8167 0.367981 14.848 0.205067 12.7689C0.205067 12.4271 0.0911409 12.1081 0.0113928 11.8005C0.00379779 11.2256 0 10.6635 0 10.1144H0.00227889ZM1.64053 9.69745H15.6693C15.5816 5.22814 12.7608 2.05759 8.99899 2.02797C4.81108 1.971 1.81484 5.07206 1.63028 9.67808L1.64053 9.69745Z" fill="#BDEBEA"/>
	</symbol>

	<symbol id="nestjs" viewBox="0 0 256 255"  xmlns="http://www.w3.org/2000/svg">
		<path d="M150.735739,0 C148.8846,0 147.165687,0.396686115 145.57898,0.925572289 C148.950692,3.17338764 150.801841,6.14846547 151.727441,9.52018849 C151.793738,9.98296798 151.925779,10.3135464 151.991974,10.7763105 C152.058271,11.1729967 152.124118,11.5696685 152.124118,11.9663525 C152.388692,17.7842283 150.603503,18.5114632 149.34739,21.9493092 C147.430118,26.3788568 147.959,31.1389429 150.272949,34.973472 C150.471297,35.4362392 150.735739,35.9651387 151.066323,36.4279315 C148.554016,19.7014919 162.503769,17.1892201 165.082118,11.9663525 C165.280456,7.40458752 161.512066,4.36341631 158.53702,2.24781739 C155.69419,0.528900497 153.115769,0 150.735739,0 Z M171.759482,3.76840811 C171.494928,5.28898963 171.693287,4.89231579 171.627369,5.68567267 C171.561174,6.21455987 171.561174,6.87570033 171.495245,7.40458752 C171.363122,7.93348904 171.230671,8.46237624 171.032435,8.99130129 C170.900322,9.52018849 170.701881,10.049089 170.503553,10.5779752 C170.238979,11.1069012 170.040763,11.5696685 169.776312,12.0985679 C169.577984,12.3631266 169.445758,12.6274551 169.24742,12.8919248 C169.115296,13.0902602 168.982866,13.2885966 168.850753,13.486932 C168.520199,13.9497371 168.189615,14.4125043 167.859071,14.809175 C167.462374,15.2058612 167.13182,15.6686274 166.669009,15.999217 C166.669009,16.0654117 166.669009,16.0654117 166.669009,16.0654117 C166.272343,16.3959758 165.875666,16.7926476 165.412897,17.1231994 C164.024527,18.1809861 162.437851,18.9743419 160.983358,19.9660342 C160.520599,20.296586 160.057779,20.5610567 159.661122,20.9577265 C159.198343,21.2882783 158.801656,21.6188301 158.404999,22.0155141 C157.942189,22.4121859 157.611635,22.80887 157.214948,23.2716618 C156.884394,23.6683469 156.487728,24.1311161 156.223287,24.5939202 C155.892702,25.0566864 155.562158,25.5194802 155.297687,25.9822587 C155.033143,26.5111448 154.834907,26.9739499 154.570456,27.5028381 C154.372128,28.0317243 154.173769,28.4945314 154.041564,29.0234166 C153.843225,29.6184381 153.710999,30.1473386 153.578774,30.6762513 C153.512579,30.940808 153.512579,31.2712462 153.446651,31.5357026 C153.380354,31.8002603 153.380354,32.0645898 153.314537,32.3290595 C153.314537,32.8579457 153.248343,33.4529672 153.248343,33.9818544 C153.248343,34.3785385 153.248343,34.7752092 153.314537,35.1718943 C153.314537,35.7007825 153.380732,36.2296708 153.512866,36.8246902 C153.57906,37.3535764 153.711184,37.8824769 153.84345,38.411403 C154.041789,38.9402891 154.174014,39.4691896 154.372332,39.9980768 C154.504476,40.3286675 154.702886,40.6592183 154.835142,40.9236491 L139.629276,35.0396492 C137.050876,34.3124134 134.53863,33.6513108 131.96023,33.0562893 C130.571882,32.7257385 129.183533,32.3951631 127.795164,32.064598 C123.828405,31.2712544 119.795584,30.6762585 115.762713,30.2795877 C115.6306,30.2795877 115.564384,30.2133828 115.432159,30.2133828 C111.46539,29.8167121 107.564785,29.6183757 103.598046,29.6183757 C100.689082,29.6183757 97.7801182,29.7504898 94.9372865,29.9489275 C90.9044271,30.2134852 86.8715616,30.7422833 82.8387298,31.4033859 C81.8470355,31.5355134 80.8553432,31.7339756 79.8636479,31.932313 C77.814172,32.3289582 75.8308161,32.7917633 73.9135536,33.2545551 C72.9218613,33.5191127 71.930167,33.7834556 70.9384737,34.0478874 C69.9468122,34.4445571 69.0212429,34.9073643 68.095641,35.304035 C67.3684092,35.6345868 66.6411805,35.9651499 65.9139477,36.2957273 C65.7818254,36.3619322 65.6493941,36.3619322 65.5833938,36.4278547 C64.9222554,36.7584055 64.32724,37.0228363 63.7322543,37.353425 C63.5339149,37.4196299 63.4016677,37.4855401 63.2694534,37.5517624 C62.5422226,37.8823152 61.8149939,38.278986 61.2199754,38.6095491 C60.7571755,38.8078855 60.2944062,39.0723419 59.8977303,39.2706905 C59.6993898,39.4028047 59.4349273,39.5352359 59.3027129,39.6012424 C58.7076986,39.9317942 58.1126822,40.2623439 57.5837889,40.5929346 C56.9887725,40.9234854 56.4598792,41.2540372 55.9970792,41.584589 C55.534312,41.9151787 55.071513,42.1796095 54.6748331,42.5101603 C54.6085975,42.5763652 54.5427108,42.5763652 54.4764936,42.6422888 C54.0798177,42.9068454 53.6170484,43.2372949 53.2203726,43.5678846 C53.2203726,43.5678846 53.1541472,43.6340792 53.0882492,43.7000099 C52.7576954,43.9645676 52.4271088,44.2288992 52.0965559,44.49333 C51.9644347,44.5595349 51.8320013,44.6916654 51.699879,44.7578866 C51.3693252,45.0224464 51.0387713,45.3529081 50.7082164,45.6173635 C50.6419911,45.7494899 50.509879,45.8156999 50.4436618,45.8819222 C50.0469849,46.278594 49.650307,46.6091448 49.2536301,47.0058299 C49.1874047,47.0058299 49.1874047,47.0720348 49.1215078,47.137944 C48.7248309,47.4685081 48.328155,47.8651809 47.9314781,48.261865 C47.8652527,48.3280699 47.8652527,48.3939781 47.7993548,48.3939781 C47.4688009,48.7245309 47.138247,49.0551195 46.8076615,49.4517647 C46.6755412,49.5838911 46.4771076,49.7163245 46.3448932,49.8484365 C46.0143394,50.2451216 45.6176614,50.6417934 45.2209856,51.0384785 C45.1547602,51.1705936 45.0226471,51.2368149 44.9564299,51.3690293 C44.4275356,51.8979554 43.9647356,52.4268426 43.4358433,52.955742 C43.3696179,53.0219469 43.303722,53.0878531 43.2375059,53.1540785 C42.1796895,54.2779851 41.0557798,55.4018928 39.8657788,56.3935779 C38.6757491,57.4513625 37.4196229,58.4430548 36.1634702,59.3025112 C34.841222,60.2281111 33.5850989,61.0214342 32.1967287,61.814788 C30.8744805,62.5419983 29.4861114,63.203147 28.0316498,63.7981726 C26.6432786,64.3931777 25.1888181,64.9220905 23.7343535,65.3848495 C20.9576141,65.9798546 18.1147803,67.1037725 15.6686255,67.302111 C15.1397332,67.302111 14.5447168,67.4342445 14.0158235,67.5004392 C13.4208102,67.6325625 12.8919168,67.765003 12.3630245,67.8971366 C11.8341312,68.0954546 11.3052082,68.2938033 10.7763138,68.4921315 C10.2474205,68.6904699 9.71852817,68.9549314 9.18963483,69.2193827 C8.72683488,69.5499263 8.19794359,69.8143878 7.73514159,70.1449417 C7.27237028,70.4754956 6.80957032,70.8721622 6.41289239,71.2688494 C5.95012415,71.5994339 5.48732419,72.0622134 5.09064626,72.4588699 C4.69396833,72.9216903 4.29729245,73.318357 3.96673818,73.781116 C3.63618422,74.3100083 3.23950659,74.7728185 2.97504427,75.301721 C2.64449041,75.764521 2.31393666,76.2934031 2.04947434,76.8222749 C1.78491922,77.417321 1.52058223,77.9462031 1.32224285,78.5412287 C1.1239045,79.070121 0.925566048,79.6651261 0.727227595,80.2601517 C0.59510611,80.7890338 0.462672683,81.3179363 0.396673941,81.8468082 C0.396673941,81.9131051 0.330459836,81.978952 0.330459836,82.0451568 C0.198337328,82.6402029 0.198337328,83.4335669 0.132120563,83.8302541 C0.0659064584,84.2930234 0,84.6896798 0,85.15249 C0,85.4170436 0,85.7474747 0.066214105,86.0119259 C0.13242821,86.4747361 0.198334464,86.8714028 0.330769119,87.2681104 C0.462890603,87.6647259 0.595324236,88.061413 0.793538485,88.4581002 C0.793538485,88.5242949 0.793538485,88.5242949 0.793538485,88.5242949 C0.991876836,88.9210025 1.25633906,89.3176589 1.52077007,89.7143358 C1.78532508,90.1110127 2.04969348,90.5076896 2.38024734,90.9043768 C2.7108011,91.2349306 3.10747903,91.6315768 3.50415543,91.9621512 C3.90083325,92.3588281 4.29751139,92.6893819 4.76027963,93.0199358 C6.34698828,94.4083152 6.74366519,94.8711151 8.7931472,95.9288895 C9.12369799,96.1272382 9.45428561,96.2594639 9.85096252,96.4578023 C9.91718788,96.4578023 9.98308482,96.523997 10.0492999,96.523997 C10.0492999,96.6561101 10.0492999,96.7223457 10.1155253,96.8545918 C10.1817404,97.3834943 10.3138627,97.9123662 10.4460792,98.4412789 C10.5782004,99.0362943 10.7766647,99.5652071 10.9750032,100.027976 C11.1733416,100.424663 11.3055571,100.82132 11.5038965,101.218017 C11.5701117,101.350151 11.6360199,101.482571 11.702235,101.548571 C11.9667896,102.077453 12.2311273,102.540284 12.4955581,103.003033 C12.8261437,103.465812 13.1566965,103.928592 13.4872494,104.391412 C13.8178053,104.788069 14.2144832,105.250858 14.6111591,105.647525 C15.007837,106.044212 15.4045149,106.374776 15.8673159,106.771422 C15.8673159,106.771422 15.9335413,106.837719 15.9994362,106.837719 C16.3961151,107.168304 16.79279,107.498868 17.1894689,107.763278 C17.6522382,108.093853 18.1150382,108.358283 18.6439294,108.622755 C19.1067304,108.887309 19.6356238,109.151648 20.1645161,109.349996 C20.561194,109.548335 21.0239622,109.680571 21.4867642,109.812786 C21.5529896,109.879083 21.6188855,109.879083 21.7513199,109.94493 C22.0158745,110.011227 22.3463025,110.077033 22.610765,110.143248 C22.4124276,113.713309 22.3462094,117.085032 22.8753217,118.275083 C23.4703063,119.597319 26.3792611,115.564468 29.288218,110.936612 C28.8915421,115.498365 28.6270785,120.853432 29.288218,122.44017 C30.0154477,124.09294 33.9821891,118.936181 37.4200362,113.250519 C84.2936988,102.40813 127.068465,134.803175 131.564085,180.552928 C130.704619,173.412785 121.911675,169.446057 117.878845,170.437759 C115.89545,175.330056 112.523727,181.610723 107.102527,185.511359 C107.565306,181.147933 107.36706,176.652313 106.441409,172.288877 C104.986917,178.371226 102.144076,184.056918 98.2434297,188.949215 C91.962756,189.411984 85.682067,186.370805 82.3764353,181.809082 C82.1118796,181.610723 82.0458804,181.214056 81.8475419,180.949615 C81.6492014,180.486785 81.450866,180.024046 81.3186486,179.561236 C81.1203112,179.098467 80.9880958,178.635667 80.9219727,178.172897 C80.8557474,177.710087 80.8557474,177.247308 80.8557474,176.718426 C80.8557474,176.387841 80.8557474,176.057297 80.8557474,175.726754 C80.9219727,175.263923 81.0540858,174.801144 81.1863022,174.338354 C81.3184235,173.875585 81.4508558,173.412785 81.6491022,172.949995 C81.9136578,172.487236 82.1118715,172.024436 82.442457,171.561667 C83.5663647,168.388231 83.5663647,165.809872 81.5168878,164.289298 C81.1202099,164.024744 80.723533,163.826488 80.260733,163.628149 C79.9961753,163.561954 79.6657156,163.429811 79.4012868,163.363606 C79.2029474,163.297411 79.070733,163.231462 78.8723935,163.165257 C78.4095925,163.033134 77.9467915,162.900693 77.4840223,162.834703 C77.0212223,162.70259 76.5584531,162.636365 76.0956531,162.636365 C75.6328828,162.570068 75.1039578,162.504241 74.6411895,162.504241 C74.3106367,162.504241 73.9800511,162.570436 73.6494962,162.570436 C73.1206049,162.570436 72.657805,162.636733 72.1950337,162.768775 C71.7322337,162.835072 71.2694655,162.900888 70.8066655,163.033308 C70.3438942,163.165441 69.8810932,163.297871 69.4182933,163.496138 C68.955525,163.694467 68.5588461,163.892805 68.0960482,164.091143 C67.699402,164.289492 67.302723,164.553913 66.8399241,164.752251 C51.4357286,174.801328 60.6253652,198.337338 71.1372204,205.146917 C67.1704769,205.874148 63.1376441,206.733645 62.0137344,207.593071 C61.947509,207.659265 61.8816131,207.725204 61.8816131,207.725204 C64.7244459,209.444107 67.6994961,210.898589 70.8067576,212.154712 C75.0379626,213.543081 79.5335943,214.799214 81.5169799,215.328127 C81.5169799,215.328127 81.5169799,215.394322 81.5169799,215.394322 C87.0043069,216.51824 92.5577591,216.914917 98.1773067,216.584363 C127.465111,214.534876 151.463911,192.254979 155.827336,162.901092 C155.959459,163.496118 156.09189,164.02499 156.224013,164.620026 C156.422362,165.810015 156.686782,167.066159 156.818998,168.322292 C156.818998,168.322292 156.818998,168.322292 156.818998,168.388589 C156.951121,168.983604 157.017336,169.57861 157.083551,170.107502 C157.083551,170.239625 157.083551,170.30584 157.083551,170.372066 C157.149848,170.967071 157.215685,171.562096 157.215685,172.090979 C157.281879,172.81822 157.347808,173.54544 157.347808,174.272712 C157.347808,174.603266 157.347808,174.93383 157.347808,175.330496 C157.347808,175.661081 157.414003,176.057717 157.414003,176.388301 C157.414003,176.784989 157.347808,177.181635 157.347808,177.578312 C157.347808,177.908907 157.347808,178.23945 157.347808,178.503881 C157.347808,178.966691 157.281511,179.363348 157.281511,179.826137 C157.281511,180.09067 157.281511,180.35504 157.215316,180.685604 C157.215316,181.148414 157.149122,181.611163 157.149122,182.140065 C157.082825,182.338404 157.082825,182.536742 157.082825,182.735091 C157.01663,183.263994 156.950701,183.726783 156.884476,184.255686 C156.884476,184.454035 156.884476,184.652353 156.818281,184.850711 C156.751984,185.511809 156.619953,186.106845 156.553759,186.767942 C156.553759,186.767942 156.553759,186.834239 156.553759,186.834239 L156.553759,186.900434 C156.421635,187.495439 156.289185,188.156557 156.157051,188.751562 C156.157051,188.817757 156.157051,188.883685 156.157051,188.949911 C156.024948,189.544906 155.892497,190.139942 155.760395,190.734926 C155.760395,190.801223 155.6942,190.933275 155.6942,190.999459 C155.562056,191.594495 155.429626,192.1895 155.231431,192.784546 C155.231431,192.850741 155.231431,192.916649 155.231431,192.982864 C155.033092,193.643962 154.834743,194.238987 154.702508,194.834003 C154.636313,194.900197 154.636313,194.966126 154.636313,194.966126 C154.437964,195.627265 154.239646,196.288372 154.041328,196.94949 C153.776775,197.610629 153.578539,198.205634 153.314097,198.866762 C153.049554,199.52789 152.851287,200.189018 152.586846,200.784013 C152.322282,201.445162 152.057933,202.040177 151.793503,202.701275 C151.793503,202.701275 151.727206,202.701275 151.727206,202.701275 C151.462632,203.29628 151.198272,203.957428 150.867698,204.552454 C150.867698,204.552454 150.867698,204.552454 150.867698,204.552454 C150.867698,204.552454 150.867698,204.552454 150.867698,204.552454 C150.801503,204.750762 150.735595,204.883008 150.66938,205.015203 C150.603185,205.0815 150.603185,205.147326 150.537257,205.213562 C146.239965,213.874259 139.893144,221.477182 131.959688,227.427315 C131.430796,227.757869 130.901883,228.154556 130.373001,228.551213 C130.373001,228.551213 130.373001,228.551213 130.373001,228.551213 C130.240867,228.683346 130.042416,228.749571 129.910201,228.881766 C129.447401,229.21233 128.984621,229.542874 128.45575,229.873469 L128.654078,230.270146 L128.720272,230.270146 C129.645831,230.138033 130.571411,230.005592 131.49699,229.873469 L131.563185,229.873469 C133.282118,229.608915 135.001041,229.278454 136.719975,228.9479 C137.182734,228.881603 137.711667,228.749571 138.174426,228.617315 C138.50498,228.551018 138.769441,228.485202 139.099995,228.418977 C139.562795,228.35268 140.025575,228.220638 140.488385,228.154433 C140.885041,228.02231 141.281728,227.956074 141.678395,227.823869 C148.289626,226.237151 154.702549,224.055428 160.850959,221.477069 C150.339123,235.823438 136.257164,247.39312 119.795185,254.996043 C127.398129,254.46714 135.001041,253.211017 142.339513,251.095428 C168.982815,243.228013 191.394896,225.311582 204.815706,201.180557 C202.105101,216.452536 196.022763,230.997254 187.031491,243.690843 C193.444384,239.459613 199.328383,234.567305 204.683491,229.013869 C219.49266,213.543582 229.211203,193.908229 232.516793,172.818332 C234.764629,183.264096 235.425757,194.040455 234.434065,204.684526 C282.167212,138.109348 238.400803,69.0880165 220.087686,50.9071133 C220.021389,50.7749971 219.955562,50.7087769 219.955562,50.5765605 C219.889265,50.6427551 219.889265,50.6427551 219.889265,50.7086879 C219.889265,50.642483 219.889265,50.642483 219.823071,50.5765605 C219.823071,51.3699163 219.756876,52.1632354 219.690947,52.9565922 C219.492599,54.4771768 219.294281,55.9316476 219.029809,57.3861398 C218.699265,58.8406013 218.302578,60.2950424 217.905891,61.7495448 C217.443122,63.1378833 216.91425,64.5923551 216.319214,65.9807345 C215.724199,67.3029602 215.06307,68.6913293 214.33584,70.0135959 C213.608599,71.2697395 212.815255,72.5919754 211.955809,73.7819856 C211.096342,75.0381496 210.170763,76.2281497 209.245173,77.3520369 C208.253471,78.5420881 207.195706,79.5998931 206.137891,80.657688 C205.476783,81.2527034 204.881778,81.7815957 204.220619,82.3104675 C203.691737,82.7732777 203.228958,83.1699649 202.700035,83.6327137 C201.510025,84.5582931 200.320004,85.4177597 198.997768,86.2111238 C197.741625,87.0044571 196.419409,87.797811 195.097153,88.4589494 C193.708784,89.1200673 192.320415,89.7150724 190.932066,90.310098 C189.543697,90.8389699 188.089235,91.3017698 186.634722,91.698457 C185.180271,92.0951134 183.659697,92.4256877 182.205215,92.6901288 C180.684651,92.9546824 179.164056,93.0867955 177.709584,93.2190416 C176.651779,93.2852362 175.593994,93.3511751 174.536179,93.3511751 C173.015584,93.3511751 171.49503,93.2190416 170.040548,93.0866215 C168.519974,92.9544982 166.999369,92.7560165 165.544907,92.4254627 C164.024323,92.1609091 162.569831,91.7643243 161.115359,91.3015754 L161.049164,91.3015754 C162.503636,91.1694521 163.958118,91.0370014 165.41261,90.7726627 C166.933164,90.5081091 168.387636,90.1776678 169.842128,89.7809602 C171.29659,89.3842935 172.751061,88.9214935 174.13942,88.3926115 C175.593882,87.8637089 176.982261,87.2026114 178.304518,86.5414526 C179.692866,85.8803141 180.94901,85.1531038 182.271246,84.35975 C183.527369,83.5002936 184.783512,82.6408475 185.973533,81.7152475 C187.163564,80.7896886 188.287451,79.7980167 189.345287,78.7402117 C190.469194,77.7484989 191.460866,76.6246015 192.452558,75.5006836 C193.44422,74.3106938 194.36981,73.1206631 195.229276,71.9306323 C195.36141,71.7322837 195.49384,71.4678631 195.625974,71.2695144 C196.287071,70.2117093 196.948179,69.1539144 197.543184,68.0960991 C198.270435,66.773853 198.931574,65.4515966 199.526568,64.0632684 C200.121594,62.6748992 200.650497,61.2865198 201.113286,59.8320685 C201.576056,58.4436891 201.90662,56.9892378 202.237194,55.5347783 C202.501758,54.0141855 202.766076,52.5596913 202.898312,51.1052318 C203.030435,49.5846533 203.162855,48.0640596 203.162855,46.6096021 C203.162855,45.5517888 203.096558,44.4940022 203.030752,43.4362145 C202.898619,41.915634 202.700178,40.4611377 202.50185,39.0066772 C202.237286,37.4860854 201.906845,36.031628 201.510147,34.5771296 C201.047388,33.1887901 200.584578,31.734305 200.055696,30.3459676 C199.526763,28.9575902 198.865676,27.5692272 198.204517,26.2469698 C197.477286,24.9247257 196.750065,23.6024816 195.956722,22.3463586 C195.097265,21.0902355 194.237778,19.9002078 193.312209,18.7101669 C192.320548,17.5862582 191.328855,16.4623515 190.27103,15.3384439 C189.742148,14.8095546 189.147122,14.2145341 188.552117,13.685648 C185.577071,11.3716993 182.469779,9.18997737 179.362517,7.20662045 C178.899738,6.94207301 178.503061,6.74382868 178.040261,6.54548 C175.858538,5.15713947 173.809061,4.42987903 171.759594,3.76877541 L171.759482,3.76840811 Z" fill="#E0234E"></path>
	</symbol>

	<symbol id="docker" viewBox="0 0 120 88"  xmlns="http://www.w3.org/2000/svg">
		<path d="M117.523 33.7463C114.821 31.8713 108.628 31.1681 103.787 32.1056C103.224 27.4181 100.635 23.3171 96.1308 19.6842L93.5414 17.8092L91.7395 20.5046C89.4881 24.0202 88.3622 28.9421 88.6997 33.6296C88.8122 35.2697 89.3752 38.1994 91.0641 40.7775C89.4881 41.715 86.2228 42.8869 81.9445 42.8869H0.541401L0.316401 43.8244C-0.472037 48.5114 -0.472037 63.1594 8.76046 74.4089C15.7411 82.9632 26.0995 87.2991 39.7228 87.2991C69.2212 87.2991 91.0641 73.1194 101.31 47.4567C105.363 47.5739 114.033 47.4567 118.424 38.6677C118.537 38.4333 118.762 37.9646 119.55 36.2072L120 35.2697L117.523 33.7463ZM65.6184 0.700806H53.2341V12.4191H65.6184V0.700806ZM65.6184 14.7628H53.2341V26.4811H65.6184V14.7624V14.7628ZM50.9817 14.7628H38.5973V26.4811H50.9817V14.7624V14.7628ZM36.345 14.7628H23.9602V26.4811H36.345V14.7624V14.7628ZM21.7083 28.8249H9.32343V40.5432H21.7078V28.8244L21.7083 28.8249ZM36.345 28.8249H23.9602V40.5432H36.345V28.8244V28.8249ZM50.9817 28.8249H38.5973V40.5432H50.9817V28.8244V28.8249ZM65.6189 28.8249H53.2336V40.5432H65.6189V28.8244V28.8249ZM80.2556 28.8249H67.8703V40.5432H80.2556V28.8244V28.8249Z" fill="#2396ED"/>
	</symbol>

	<symbol id="react" viewBox="0 0 256 228" xmlns="http://www.w3.org/2000/svg">
		<path d="M210.483381,73.8236374 C207.827698,72.9095503 205.075867,72.0446761 202.24247,71.2267368 C202.708172,69.3261098 203.135596,67.4500894 203.515631,65.6059664 C209.753843,35.3248922 205.675082,10.9302478 191.747328,2.89849283 C178.392359,-4.80289661 156.551327,3.22703567 134.492936,22.4237776 C132.371761,24.2697233 130.244662,26.2241201 128.118477,28.2723861 C126.701777,26.917204 125.287358,25.6075897 123.876584,24.3549348 C100.758745,3.82852863 77.5866802,-4.82157937 63.6725966,3.23341515 C50.3303869,10.9571328 46.3792156,33.8904224 51.9945178,62.5880206 C52.5367729,65.3599011 53.1706189,68.1905639 53.8873982,71.068617 C50.6078941,71.9995641 47.4418534,72.9920277 44.4125156,74.0478303 C17.3093297,83.497195 0,98.3066828 0,113.667995 C0,129.533287 18.5815786,145.446423 46.8116526,155.095373 C49.0394553,155.856809 51.3511025,156.576778 53.7333796,157.260293 C52.9600965,160.37302 52.2875179,163.423318 51.7229345,166.398431 C46.3687351,194.597975 50.5500231,216.989464 63.8566899,224.664425 C77.6012619,232.590464 100.66852,224.443422 123.130185,204.809231 C124.905501,203.257196 126.687196,201.611293 128.472081,199.886102 C130.785552,202.113904 133.095375,204.222319 135.392897,206.199955 C157.14963,224.922338 178.637969,232.482469 191.932332,224.786092 C205.663234,216.837268 210.125675,192.78347 204.332202,163.5181 C203.88974,161.283006 203.374826,158.99961 202.796573,156.675661 C204.416503,156.196743 206.006814,155.702335 207.557482,155.188332 C236.905331,145.46465 256,129.745175 256,113.667995 C256,98.2510906 238.132466,83.3418093 210.483381,73.8236374 L210.483381,73.8236374 Z M204.118035,144.807565 C202.718197,145.270987 201.281904,145.718918 199.818271,146.153177 C196.578411,135.896354 192.205739,124.989735 186.854729,113.72131 C191.961041,102.721277 196.164656,91.9540963 199.313837,81.7638014 C201.93261,82.5215915 204.474374,83.3208483 206.923636,84.1643056 C230.613348,92.3195488 245.063763,104.377206 245.063763,113.667995 C245.063763,123.564379 229.457753,136.411268 204.118035,144.807565 L204.118035,144.807565 Z M193.603754,165.642007 C196.165567,178.582766 196.531475,190.282717 194.834536,199.429057 C193.309843,207.64764 190.243595,213.12715 186.452366,215.321689 C178.384612,219.991462 161.131788,213.921395 142.525146,197.909832 C140.392124,196.074366 138.243609,194.114502 136.088259,192.040261 C143.301619,184.151133 150.510878,174.979732 157.54698,164.793993 C169.922699,163.695814 181.614905,161.900447 192.218042,159.449363 C192.740247,161.555956 193.204126,163.621993 193.603754,165.642007 L193.603754,165.642007 Z M87.2761866,214.514686 C79.3938934,217.298414 73.1160375,217.378157 69.3211631,215.189998 C61.2461189,210.532528 57.8891498,192.554265 62.4682434,168.438039 C62.9927272,165.676183 63.6170041,162.839142 64.3365173,159.939216 C74.8234575,162.258154 86.4299951,163.926841 98.8353334,164.932519 C105.918826,174.899534 113.336329,184.06091 120.811247,192.08264 C119.178102,193.65928 117.551336,195.16028 115.933685,196.574699 C106.001303,205.256705 96.0479605,211.41654 87.2761866,214.514686 L87.2761866,214.514686 Z M50.3486141,144.746959 C37.8658105,140.48046 27.5570398,134.935332 20.4908634,128.884403 C14.1414664,123.446815 10.9357817,118.048415 10.9357817,113.667995 C10.9357817,104.34622 24.8334611,92.4562517 48.0123604,84.3748281 C50.8247961,83.3942121 53.7689223,82.4701001 56.8242337,81.6020363 C60.0276398,92.0224477 64.229889,102.917218 69.3011135,113.93411 C64.1642716,125.11459 59.9023288,136.182975 56.6674809,146.725506 C54.489347,146.099407 52.3791089,145.440499 50.3486141,144.746959 L50.3486141,144.746959 Z M62.7270678,60.4878073 C57.9160346,35.9004118 61.1112387,17.3525532 69.1516515,12.6982729 C77.7160924,7.74005624 96.6544653,14.8094222 116.614922,32.5329619 C117.890816,33.6657739 119.171723,34.8514442 120.456275,36.0781256 C113.018267,44.0647686 105.66866,53.1573386 98.6480514,63.0655695 C86.6081646,64.1815215 75.0831931,65.9741531 64.4868907,68.3746571 C63.8206914,65.6948233 63.2305903,63.0619242 62.7270678,60.4878073 L62.7270678,60.4878073 Z M173.153901,87.7550367 C170.620796,83.3796304 168.020249,79.1076627 165.369124,74.9523483 C173.537126,75.9849113 181.362914,77.3555864 188.712066,79.0329319 C186.505679,86.1041206 183.755673,93.4974728 180.518546,101.076741 C178.196419,96.6680702 175.740322,92.2229454 173.153901,87.7550367 L173.153901,87.7550367 Z M128.122121,43.8938899 C133.166461,49.3588189 138.218091,55.4603279 143.186789,62.0803968 C138.179814,61.8439007 133.110868,61.720868 128.000001,61.720868 C122.937434,61.720868 117.905854,61.8411667 112.929865,62.0735617 C117.903575,55.515009 122.99895,49.4217021 128.122121,43.8938899 L128.122121,43.8938899 Z M82.8018984,87.830679 C80.2715265,92.2183886 77.8609975,96.6393627 75.5753239,101.068539 C72.3906004,93.5156998 69.6661103,86.0886276 67.440586,78.9171899 C74.7446255,77.2826781 82.5335049,75.9461789 90.6495601,74.9332099 C87.9610684,79.1268011 85.3391054,83.4302106 82.8018984,87.8297677 L82.8018984,87.830679 L82.8018984,87.830679 Z M90.8833221,153.182899 C82.4979621,152.247395 74.5919739,150.979704 67.289757,149.390303 C69.5508242,142.09082 72.3354636,134.505173 75.5876271,126.789657 C77.8792246,131.215644 80.2993228,135.638441 82.8451877,140.03572 L82.8456433,140.03572 C85.4388987,144.515476 88.1255676,148.90364 90.8833221,153.182899 L90.8833221,153.182899 Z M128.424691,184.213105 C123.24137,178.620587 118.071264,172.434323 113.021912,165.780078 C117.923624,165.972373 122.921029,166.0708 128.000001,166.0708 C133.217953,166.0708 138.376211,165.953235 143.45336,165.727219 C138.468257,172.501308 133.434855,178.697141 128.424691,184.213105 L128.424691,184.213105 Z M180.622896,126.396409 C184.044571,134.195313 186.929004,141.741317 189.219234,148.9164 C181.796719,150.609693 173.782736,151.973534 165.339049,152.986959 C167.996555,148.775595 170.619884,144.430263 173.197646,139.960532 C175.805484,135.438399 178.28163,130.90943 180.622896,126.396409 L180.622896,126.396409 Z M163.724586,134.496971 C159.722835,141.435557 155.614455,148.059271 151.443648,154.311611 C143.847063,154.854776 135.998946,155.134562 128.000001,155.134562 C120.033408,155.134562 112.284171,154.887129 104.822013,154.402745 C100.48306,148.068386 96.285368,141.425078 92.3091341,134.556664 L92.3100455,134.556664 C88.3442923,127.706935 84.6943232,120.799333 81.3870228,113.930466 C84.6934118,107.045648 88.3338117,100.130301 92.276781,93.292874 L92.2758697,93.294241 C96.2293193,86.4385872 100.390102,79.8276317 104.688954,73.5329157 C112.302398,72.9573964 120.109505,72.6571055 127.999545,72.6571055 L128.000001,72.6571055 C135.925583,72.6571055 143.742714,72.9596746 151.353879,73.5402067 C155.587114,79.7888993 159.719645,86.3784378 163.688588,93.2350031 C167.702644,100.168578 171.389978,107.037901 174.724618,113.77508 C171.400003,120.627999 167.720871,127.566587 163.724586,134.496971 L163.724586,134.496971 Z M186.284677,12.3729198 C194.857321,17.3165548 198.191049,37.2542268 192.804953,63.3986692 C192.461372,65.0669011 192.074504,66.7661189 191.654369,68.4881206 C181.03346,66.0374921 169.500286,64.2138746 157.425315,63.0810626 C150.391035,53.0639249 143.101577,43.9572289 135.784778,36.073113 C137.751934,34.1806885 139.716356,32.3762092 141.672575,30.673346 C160.572216,14.2257007 178.236518,7.73185406 186.284677,12.3729198 L186.284677,12.3729198 Z M128.000001,90.8080696 C140.624975,90.8080696 150.859926,101.042565 150.859926,113.667995 C150.859926,126.292969 140.624975,136.527922 128.000001,136.527922 C115.375026,136.527922 105.140075,126.292969 105.140075,113.667995 C105.140075,101.042565 115.375026,90.8080696 128.000001,90.8080696 L128.000001,90.8080696 Z" fill="#00D8FF"></path>
	</symbol>

	<symbol id="react-native" viewBox="0 0 120 106" xmlns="http://www.w3.org/2000/svg">
		<path d="M59.9999 63.6073C65.9173 63.6073 70.7142 58.8103 70.7142 52.893C70.7142 46.9757 65.9173 42.1787 59.9999 42.1787C54.0826 42.1787 49.2856 46.9757 49.2856 52.893C49.2856 58.8103 54.0826 63.6073 59.9999 63.6073Z" fill="#F5DE19"/>
		<path d="M60 77.4583C47.122 77.7698 34.2763 76.0339 21.9429 72.3155C16.2455 70.5094 10.9317 67.6643 6.27 63.924C4.49113 62.6463 3.00974 60.9988 1.92747 59.0946C0.845197 57.1905 0.18767 55.0748 0 52.8926C0 45.8083 7.78286 38.8655 20.82 34.3226C33.4831 30.2972 46.714 28.3463 60 28.5455C73.1087 28.3623 86.1623 30.2779 98.6657 34.2197C104.153 35.969 109.286 38.6765 113.829 42.2169C115.577 43.4351 117.036 45.0228 118.103 46.8677C119.169 48.7126 119.817 50.7695 120 52.8926C120 60.2555 111.3 67.7169 97.2857 72.354C85.1911 75.9513 72.6164 77.6728 60 77.4583ZM60 33.6712C47.2891 33.5013 34.6321 35.3559 22.5043 39.1655C10.5043 43.3526 5.12571 49.0783 5.12571 52.8797C5.12571 56.8569 10.9071 63.1097 23.6014 67.4512C35.4003 70.9905 47.6855 72.6381 60 72.3326C72.0703 72.5484 84.1025 70.9152 95.6786 67.4897C108.857 63.1226 114.857 56.8612 114.857 52.8926C114.641 51.5307 114.145 50.2285 113.4 49.0681C112.655 47.9078 111.677 46.9145 110.529 46.1512C106.465 43.0104 101.879 40.6108 96.9814 39.0626C85.0201 35.3073 72.5356 33.4872 60 33.6712Z" fill="#F5DE19"/>
		<path d="M35.6555 106.331C33.6562 106.377 31.6805 105.892 29.9298 104.925C23.7927 101.385 21.6669 91.1767 24.2426 77.6124C27.0826 64.6313 32.0032 52.1951 38.8141 40.7852C45.2029 29.3385 53.382 18.9877 63.0412 10.1252C67.2976 6.24538 72.2078 3.1504 77.5441 0.983791C79.4742 0.0792446 81.5797 -0.389648 83.7112 -0.389648C85.8428 -0.389648 87.9482 0.0792446 89.8784 0.983791C96.2598 4.66093 98.3727 15.9238 95.3941 30.3795C92.4665 42.6562 87.6736 54.4114 81.1827 65.2352C75.0187 76.5468 67.0971 86.8074 57.7141 95.6338C53.3032 99.6657 48.1841 102.846 42.6155 105.015C40.3862 105.843 38.033 106.287 35.6555 106.331ZM43.2541 43.3309C36.7574 54.2566 32.0412 66.1468 29.2827 78.5552C26.9127 91.0481 29.1884 98.5609 32.4969 100.472C35.9255 102.457 44.2484 100.575 54.3541 91.7467C63.3113 83.2907 70.8722 73.4689 76.7555 62.6466C82.9738 52.2989 87.5713 41.0601 90.3884 29.3209C93.1912 15.7138 90.7698 7.38236 87.3326 5.40236C86.0444 4.90876 84.6678 4.6878 83.2898 4.75346C81.9118 4.81911 80.5624 5.16995 79.3269 5.78379C74.577 7.74385 70.2101 10.5265 66.4269 14.0038C57.1984 22.4929 49.3856 32.4021 43.2841 43.3566L43.2541 43.3309Z" fill="#F5DE19"/>
		<path d="M84.326 106.387C78.5188 106.387 71.1431 102.872 63.4631 96.2681C53.6347 87.325 45.3173 76.8512 38.8331 65.2524C32.1077 53.9996 27.226 41.7433 24.3731 28.9481C23.1359 23.3187 22.9066 17.5146 23.696 11.8052C23.8785 9.68726 24.5234 7.63511 25.5853 5.7935C26.6471 3.95188 28.1001 2.36565 29.8417 1.14666C36.2145 -2.54334 47.0274 1.24951 58.0631 11.0467C67.2371 19.7132 75.0276 29.7354 81.1631 40.7638C87.8844 51.7539 92.8173 63.7418 95.7774 76.2795C97.0679 82.1154 97.267 88.1397 96.3645 94.0481C96.1498 96.227 95.4665 98.3337 94.3613 100.224C93.2561 102.114 91.7553 103.742 89.9617 104.998C88.2395 105.953 86.2944 106.432 84.326 106.387ZM43.2688 62.6724C49.4892 73.7571 57.4343 83.7811 66.806 92.3681C76.4445 100.661 84.0903 102.444 87.3774 100.511C90.806 98.5181 93.3345 90.3838 90.7288 77.2224C87.874 65.2521 83.1426 53.8091 76.7103 43.3181C70.8552 32.7629 63.4191 23.1661 54.6603 14.8609C44.2717 5.63808 35.846 3.57666 32.4131 5.56523C31.3432 6.43472 30.4651 7.51661 29.8344 8.7426C29.2037 9.96858 28.8341 11.312 28.7488 12.6881C28.0674 17.7799 28.2894 22.952 29.4045 27.9667C32.1487 40.203 36.8306 51.9221 43.2731 62.6809L43.2688 62.6724Z" fill="#F5DE19"/>
	</symbol>

	<symbol id="styled-components" viewBox="0 0 120 120" xmlns="http://www.w3.org/2000/svg">
		<path d="M68.7672 118.279C68.9472 117.872 69.4014 117.589 69.7314 117.246C74.7665 111.967 79.8444 106.735 84.811 101.391C86.3651 99.9558 87.5661 98.1804 88.3199 96.2036C89.0737 94.2269 89.36 92.1026 89.1562 89.9968C89.0003 89.0951 88.7957 88.2025 88.5434 87.3229C87.1893 88.6084 85.9294 89.7783 84.661 90.9567C82.6898 92.7908 80.7272 94.6334 78.7389 96.4461C77.5664 97.6415 76.0589 98.4531 74.4155 98.7737C72.772 99.0943 71.07 98.9087 69.5342 98.2416C67.9796 97.6705 66.6269 96.6553 65.6442 95.3221C64.6614 93.9889 64.0919 92.3965 64.0063 90.7425C63.9603 90.5297 63.8987 90.3206 63.8221 90.1168C62.3094 91.4024 60.861 92.5851 59.4254 93.8021L29.5875 119.085C29.3818 119.261 29.159 119.479 28.9662 119.65H68.7458L68.6858 119.612C68.4715 119.462 68.5829 118.673 68.7672 118.279Z" fill="#FFCEBF"/>
		<path d="M27.1436 118.279C27.4974 117.818 27.9245 117.418 28.4077 117.096L69.7 82.0642C72.5168 79.6731 75.3207 77.2691 78.1118 74.8522C78.4567 74.6118 78.727 74.2791 78.8918 73.8924C79.5594 70.9831 79.654 67.9717 79.1703 65.0263C78.7418 65.3262 78.5104 65.4548 78.3132 65.6648C74.9322 68.6901 71.5683 71.7412 68.1702 74.7494C67.0445 75.8824 65.5885 76.6292 64.0116 76.8825C62.4346 77.1359 60.818 76.8826 59.3941 76.1592C57.9414 75.4734 56.7256 74.3709 55.9014 72.992C55.0773 71.6131 54.682 70.0201 54.766 68.4159V67.0275C54.1447 67.4817 53.6905 67.7859 53.2662 68.1287C36.7396 81.3615 20.2159 94.5842 3.69496 107.797C2.94933 108.393 2.05801 109.721 1.08098 108.431C0.103957 107.141 1.59092 106.61 2.34083 106.01C19.953 91.8774 37.5738 77.7576 55.2031 63.6507C58.0742 61.3496 58.2628 60.3854 56.3944 56.7301L55.2803 57.7757C52.2249 60.6168 49.1353 63.4193 46.1271 66.3075C44.8931 67.4978 43.3476 68.3148 41.6691 68.6641C39.9906 69.0135 38.2476 68.8809 36.6412 68.2818C35.0348 67.6827 33.6306 66.6415 32.5908 65.2784C31.5509 63.9153 30.9178 62.2858 30.7646 60.5782C30.1947 61.0067 29.7019 61.3196 29.2348 61.6838L3.09503 81.9443C2.64419 82.3864 2.13005 82.7591 1.5695 83.0498C1.14643 83.1777 0.692134 83.155 0.283936 82.9856V119.671H27.0922C26.9925 119.451 26.9453 119.21 26.9542 118.969C26.9631 118.727 27.028 118.491 27.1436 118.279Z" fill="#FFCEBF"/>
		<path d="M99.5654 1.82096C98.8369 4.20782 98.1298 6.59897 97.4913 9.01154C96.9016 10.7164 96.9702 12.5802 97.6837 14.2371C98.3972 15.8941 99.7041 17.2246 101.348 17.9676C106.376 20.6107 112.043 21.798 117.709 21.3958V2.22806C117.646 1.80781 117.669 1.37914 117.777 0.968207C117.897 0.73576 118.049 0.520916 118.227 0.329712H99.5482C99.8353 0.663958 99.7368 1.25103 99.5654 1.82096Z" fill="#FF6196"/>
		<path d="M62.0511 42.9976C61.9623 45.137 61.2139 47.1966 59.9085 48.894C55.242 54.9179 49.8829 60.3719 43.9418 65.1435C42.9837 66.0304 41.7694 66.591 40.473 66.745C39.1766 66.8989 37.8647 66.6383 36.7255 66.0005C35.5917 65.5161 34.6357 64.6925 33.9889 63.6428C33.342 62.5932 33.0361 61.369 33.1131 60.1384C33.2503 58.627 33.8779 57.202 34.9 56.0803C41.5435 49.7455 48.7415 44.019 56.4075 38.9695C56.9096 38.5758 57.5227 38.3499 58.1602 38.3237C58.7977 38.2976 59.4273 38.4725 59.9599 38.8238C60.66 39.2585 61.2259 39.8786 61.5951 40.6153C61.9642 41.352 62.122 42.1766 62.0511 42.9976Z" fill="#FF87AF"/>
		<path d="M56.9127 68.97C56.8132 68.0228 56.9348 67.0654 57.2679 66.1731C57.6011 65.2809 58.1366 64.478 58.8325 63.8277C65.3374 57.8281 72.3164 52.3638 79.7014 47.4883C79.9243 47.3468 80.13 47.2054 80.3742 47.0597C81.0193 46.594 81.8009 46.356 82.596 46.3832C83.3912 46.4103 84.1547 46.7011 84.7665 47.2097C85.3585 47.7112 85.7774 48.3865 85.9635 49.1396C86.1497 49.8928 86.0937 50.6854 85.8036 51.4049C84.8693 54.5168 83.1449 57.3337 80.7984 59.5811C76.033 64.2758 71.1755 68.8762 66.2287 73.3795C65.4838 74.1456 64.5052 74.6422 63.447 74.7911C62.3889 74.9401 61.3112 74.7329 60.3837 74.2022C59.4091 73.6958 58.5792 72.9499 57.9721 72.0347C57.3649 71.1194 57.0004 70.0648 56.9127 68.97Z" fill="#FF87AF"/>
		<path d="M87.8344 71.8015C86.6346 73.0871 85.4004 74.3126 84.2477 75.6282C83.9011 76.1367 83.6136 76.683 83.3907 77.2566C84.0249 77.4451 84.7662 77.9422 85.2804 77.7665C87.8987 76.888 90.4527 75.8339 93.3281 74.724C92.7024 76.1638 92.231 77.4922 91.5668 78.7092C88.8305 83.3078 85.4038 87.4587 81.4066 91.0164C79.8868 92.4819 78.3084 93.8832 76.6715 95.2201C75.8046 95.9395 74.7622 96.4157 73.6509 96.6001C72.5396 96.7844 71.3992 96.6702 70.3465 96.2692C69.2938 95.8681 68.3665 95.1947 67.6595 94.3176C66.9525 93.4406 66.4912 92.3916 66.3227 91.2778C66.254 90.6585 66.3087 90.0317 66.4838 89.4337C66.6589 88.8357 66.9507 88.2784 67.3426 87.7939C73.174 81.4614 79.8384 75.9503 87.1531 71.4115C87.242 71.3771 87.3363 71.3582 87.4316 71.3558L87.8344 71.8015Z" fill="#FF87AF"/>
		<path d="M97.6724 54.7335L105.004 22.1659L110.147 23.37L107.494 31.4305C105.017 38.9296 102.51 46.4287 100.093 53.9364C99.6221 55.3248 99.0051 55.5819 97.6724 54.7335Z" fill="#FF6196"/>
		<path d="M89.3859 73.8885C90.1615 70.9274 90.9328 68.1892 91.5842 65.421C92.219 62.7364 93.4264 60.2207 95.1238 58.0461C96.1651 56.6791 97.3349 57.2234 98.5305 57.519C99.6361 57.789 99.9146 58.5989 99.9618 59.6616C100.136 62.6005 99.2411 65.5031 97.4421 67.8335C95.3003 70.4887 92.5318 72.5695 89.3859 73.8885Z" fill="#FF6196"/>
		<path d="M119.944 3.83936C120.008 2.88498 119.983 1.92674 119.871 0.976845C119.783 0.711516 119.607 0.483621 119.374 0.329779C119.184 0.175101 118.961 0.0652523 118.723 0.00838844C118.585 -0.0173228 118.393 0.124089 118.208 0.325493C118.03 0.516698 117.878 0.731542 117.758 0.96399C117.65 1.37492 117.627 1.80359 117.69 2.22384V21.3873C112.023 21.7895 106.357 20.6022 101.329 17.9591C99.685 17.2161 98.3781 15.8856 97.6646 14.2286C96.951 12.5717 96.8824 10.7079 97.4722 9.00304C98.1107 6.59046 98.8178 4.19932 99.5462 1.81246C99.7177 1.24253 99.8162 0.655454 99.5462 0.321208C99.3961 0.158494 99.1888 0.0602123 98.9677 0.0469556C98.6847 0.0500088 98.4105 0.146413 98.1878 0.321208C97.8674 0.512888 97.6121 0.796593 97.4551 1.1354C96.598 3.70652 95.8438 6.30336 95.1882 8.9259C94.9407 9.95936 94.874 11.0279 94.9911 12.0841C95.1569 13.9952 95.8676 15.8186 97.0389 17.3377C98.2102 18.8569 99.7928 20.0081 101.599 20.6545C102.409 20.993 102.884 21.3273 102.657 22.3943C102.344 23.7484 102.04 25.1026 101.732 26.461C99.632 35.6656 97.5436 44.8745 95.4667 54.0877C95.4082 54.4985 95.2275 54.8822 94.9482 55.189C93.5793 56.2771 92.4291 57.6148 91.5586 59.1314C90.4493 61.1327 89.6817 63.3052 89.2875 65.5592C89.2118 66.2782 88.952 66.9655 88.5331 67.5548C88.1143 68.144 87.5505 68.6153 86.8963 68.9231C85.1094 69.8273 83.4682 70.9971 81.4841 72.2141C81.6164 69.8282 81.5906 67.4361 81.407 65.0535C81.256 64.3206 81.288 63.5618 81.5003 62.8442C81.7126 62.1267 82.0985 61.4725 82.624 60.9397C85.2375 58.3506 87.1005 55.1015 88.0148 51.538C88.2878 50.712 88.3627 49.8333 88.2333 48.9729C88.104 48.1126 87.774 47.2948 87.27 46.5856C86.7661 45.8764 86.1023 45.2957 85.3325 44.8905C84.5626 44.4853 83.7081 44.267 82.8382 44.2531C81.4298 44.2374 80.047 44.6304 78.8573 45.3844C74.7683 48.1767 70.7504 51.0715 66.8073 54.0663C64.4633 55.8318 62.2564 57.7858 59.9852 59.637C59.8873 59.5319 59.8025 59.4154 59.7324 59.2899C59.689 58.9744 59.604 58.6661 59.4796 58.3729C57.5812 55.4418 58.8968 53.3121 60.958 51.1223C63.1053 48.8714 64.2919 45.8727 64.2661 42.7619C64.3327 41.1769 63.8363 39.6194 62.8649 38.3653C62.3474 37.7286 61.7096 37.2001 60.988 36.8097C59.9629 36.2487 58.7908 36.0145 57.6289 36.1386C56.467 36.2627 55.3708 36.7391 54.4873 37.5039L53.2917 38.361C50.5621 40.315 47.7981 42.2177 45.1713 44.3089C41.3364 47.3705 37.5841 50.5341 33.9183 53.7963C32.2042 55.309 30.953 57.3744 29.1746 58.78C19.9014 66.1034 10.5297 73.294 1.1922 80.5317C0.871132 80.7232 0.575909 80.9551 0.313735 81.2216C0.286745 81.2606 0.263774 81.3023 0.245172 81.3459C0.0480521 81.8044 -0.119071 82.5629 0.112331 82.8414C0.169054 82.9019 0.23761 82.95 0.313735 82.9828C0.721934 83.1523 1.17623 83.175 1.5993 83.0471C2.15985 82.7563 2.67399 82.3837 3.12483 81.9415L29.2646 61.6811C29.7317 61.3168 30.2245 60.9869 30.7944 60.5755C30.9476 62.2831 31.5807 63.9125 32.6206 65.2757C33.6604 66.6388 35.0646 67.68 36.671 68.2791C38.2774 68.8782 40.0204 69.0107 41.6989 68.6614C43.3774 68.312 44.9229 67.4951 46.1569 66.3048C49.1565 63.4166 52.2547 60.6141 55.3101 57.773L56.4242 56.7274C58.2926 60.3827 58.104 61.3468 55.2329 63.648C37.5893 77.7663 19.9585 91.8875 2.34064 106.012C1.59073 106.611 0.108046 107.156 1.08079 108.433C2.05353 109.71 2.94914 108.394 3.69476 107.798C20.2242 94.5972 36.7423 81.3787 53.2489 68.1432C53.6774 67.8003 54.1273 67.4961 54.7487 67.0419V68.4303C54.6647 70.0345 55.0599 71.6275 55.8841 73.0064C56.7082 74.3853 57.924 75.4879 59.3767 76.1736C60.8007 76.897 62.4173 77.1503 63.9942 76.897C65.5711 76.6436 67.0271 75.8968 68.1528 74.7638C71.551 71.7642 74.9149 68.7045 78.2959 65.6792C78.5102 65.4863 78.7587 65.3406 79.153 65.0407C79.6367 67.9861 79.542 70.9975 78.8744 73.9068C78.7096 74.2936 78.4394 74.6262 78.0945 74.8667C75.3005 77.2807 72.4966 79.6847 69.6826 82.0787L28.4075 117.115C27.9243 117.437 27.4972 117.836 27.1434 118.297C27.0305 118.507 26.9672 118.741 26.9582 118.979C26.9493 119.217 26.9951 119.455 27.092 119.673C27.2856 119.818 27.5094 119.917 27.7468 119.964C27.9842 120.011 28.2291 120.004 28.4633 119.943C28.648 119.889 28.8181 119.794 28.9603 119.664C29.1746 119.493 29.3889 119.274 29.5817 119.099L59.4196 93.8158C60.8551 92.5988 62.3035 91.399 63.8162 90.1306C63.8928 90.3343 63.9544 90.5434 64.0005 90.7562C64.0861 92.4102 64.6556 94.0027 65.6383 95.3358C66.6211 96.669 67.9737 97.6842 69.5284 98.2553C71.0641 98.9225 72.7662 99.108 74.4096 98.7874C76.053 98.4669 77.5606 97.6552 78.733 96.4598C80.7213 94.6472 82.684 92.8045 84.6552 90.9705C85.9407 89.792 87.1834 88.6093 88.5376 87.3366C88.7898 88.2162 88.9944 89.1089 89.1503 90.0106C89.3473 92.1094 89.0578 94.2253 88.3042 96.1941C87.5506 98.1628 86.3532 99.9313 84.8051 101.362C79.8386 106.71 74.7606 111.942 69.7255 117.217C69.3955 117.56 68.9413 117.843 68.7613 118.25C68.5813 118.657 68.4657 119.454 68.6799 119.626L68.7399 119.664C69.1892 119.883 69.6945 119.959 70.1883 119.883C70.3267 119.854 70.45 119.777 70.5354 119.664C70.6554 119.54 70.7711 119.386 70.8868 119.27C74.9663 115.053 79.0672 110.858 83.1168 106.611C84.7513 104.955 86.288 103.205 87.7191 101.371C89.5851 99.3049 90.8224 96.7492 91.2855 94.0042C91.7486 91.2591 91.4181 88.439 90.3331 85.8754C90.2164 85.3037 90.3304 84.7092 90.6502 84.2213C90.9287 83.7413 91.2372 83.2742 91.5543 82.8114C92.569 81.494 93.4141 80.0544 94.0698 78.5262C95.3368 74.7758 97.2817 71.2898 99.8076 68.2417C100.969 66.7695 101.768 65.0448 102.14 63.207C102.512 61.3692 102.447 59.4696 101.95 57.6616C101.775 56.9741 101.775 56.2535 101.95 55.5661C104.119 48.8512 106.351 42.1577 108.562 35.4599L111.519 26.4867L112.432 23.7142C114.377 23.7142 116.211 23.6756 118.037 23.7142C119.554 23.757 120.017 23.0457 120 21.5715C119.91 15.658 119.944 9.74866 119.944 3.83936ZM43.9371 65.1435C42.9791 66.0304 41.7647 66.591 40.4683 66.745C39.1719 66.8989 37.86 66.6383 36.7208 66.0006C35.587 65.5162 34.631 64.6925 33.9842 63.6429C33.3373 62.5932 33.0314 61.369 33.1084 60.1384C33.2457 58.6271 33.8732 57.202 34.8953 56.0803C41.5388 49.7455 48.7368 44.019 56.4028 38.9695C56.8212 38.6737 57.2972 38.4693 57.7998 38.3696C58.1369 38.3074 58.4825 38.3074 58.8196 38.3696C59.2234 38.4482 59.6086 38.6023 59.9552 38.8238C60.656 39.2588 61.2224 39.8796 61.5916 40.6171C61.9607 41.3547 62.1182 42.1802 62.0464 43.0019C61.9576 45.1413 61.2092 47.2009 59.9038 48.8983C55.237 54.9207 49.878 60.3733 43.9371 65.1435ZM66.2202 73.4097C65.4752 74.1758 64.4966 74.6724 63.4385 74.8213C62.3803 74.9703 61.3027 74.7631 60.3752 74.2324C59.3988 73.7249 58.5678 72.977 57.9605 72.0593C57.3533 71.1416 56.9897 70.0844 56.9042 68.9874C56.8047 68.0401 56.9263 67.0828 57.2594 66.1905C57.5925 65.2982 58.1281 64.4954 58.8239 63.8451C65.3288 57.8454 72.3078 52.3811 79.6929 47.5056C79.9157 47.3642 80.1214 47.2228 80.3657 47.0771C81.0107 46.6114 81.7923 46.3734 82.5875 46.4005C83.3826 46.4277 84.1462 46.7185 84.758 47.2271C85.35 47.7285 85.7688 48.4038 85.955 49.157C86.1412 49.9101 86.0852 50.7028 85.795 51.4223C84.8607 54.5342 83.1364 57.351 80.7899 59.5985C76.0633 64.3208 71.1482 68.8674 66.2288 73.3925L66.2202 73.4097ZM91.5501 78.7276C88.8175 83.319 85.3967 87.4638 81.407 91.0176C79.8872 92.4831 78.3088 93.8844 76.6718 95.2214C75.8049 95.9408 74.7625 96.417 73.6512 96.6013C72.5399 96.7856 71.3996 96.6714 70.3469 96.2704C69.2942 95.8694 68.3669 95.1959 67.6599 94.3189C66.9529 93.4419 66.4915 92.3928 66.323 91.279C66.2543 90.6597 66.3091 90.0329 66.4842 89.435C66.6592 88.837 66.9511 88.2796 67.3429 87.7951C73.1743 81.4627 79.8387 75.9515 87.1534 71.4128C87.2424 71.3783 87.3366 71.3594 87.432 71.3571L87.8605 71.7856C86.6606 73.0712 85.4265 74.2967 84.2738 75.6123C83.9272 76.1208 83.6396 76.6671 83.4167 77.2407C84.0509 77.4292 84.7923 77.9263 85.3065 77.7506C87.3763 77.0564 89.4117 76.2508 91.5929 75.3937L93.3541 74.7081C92.6942 76.1651 92.2228 77.4935 91.5586 78.7105L91.5501 78.7276ZM97.4336 67.8646C95.8352 69.8996 93.8317 71.5806 91.5501 72.8012C90.8444 73.1954 90.1202 73.564 89.3775 73.9068C90.1402 70.9885 90.903 68.2846 91.5501 65.5506L91.5758 65.4392C92.2106 62.7546 93.418 60.2389 95.1153 58.0644C96.1566 56.6974 97.3265 57.2416 98.5221 57.5373C99.6277 57.8073 99.9062 58.6172 99.9533 59.6799C100.129 62.6162 99.2372 65.5171 97.4422 67.8475L97.4336 67.8646ZM107.461 31.4404C104.984 38.9395 102.477 46.4386 100.06 53.9463C99.6062 55.3561 98.9892 55.6132 97.6565 54.7648L104.011 26.5124L104.988 22.1758L110.131 23.3799L109.098 26.5124L107.461 31.4404Z" fill="black"/>
	</symbol>

	<symbol id="redux" viewBox="0 0 120 114" xmlns="http://www.w3.org/2000/svg">
		<path d="M83.1473 79.6013C87.5756 79.1428 90.9352 75.3253 90.7823 70.7438C90.63 66.1627 86.812 62.4975 82.2309 62.4975H81.9258C77.1914 62.6503 73.5267 66.6207 73.6795 71.3546C73.8323 73.6453 74.7483 75.6305 76.1227 77.0049C70.9308 87.2368 62.9902 94.7194 51.0792 100.98C42.9858 105.256 34.5872 106.784 26.1886 105.715C19.3167 104.798 13.972 101.745 10.612 96.7046C5.72578 89.2219 5.26781 81.128 9.39093 73.0346C12.2925 67.2314 16.8731 62.9555 19.7747 60.8175C19.1639 58.8324 18.2475 55.4728 17.7895 53.0297C-4.35282 69.0643 -2.06204 90.7491 4.65703 100.98C9.69609 108.616 19.9275 113.35 31.2276 113.35C34.2816 113.35 37.3355 113.045 40.3898 112.282C59.9362 108.464 74.7487 96.8574 83.1473 79.6013ZM110.024 60.6652C98.4178 47.0738 81.315 39.5911 61.7686 39.5911H59.3255C57.9511 36.8424 55.0495 35.0096 51.8428 35.0096H51.5372C46.8037 35.1624 43.1391 39.1327 43.2914 43.8671C43.4442 48.4482 47.2617 52.1133 51.8428 52.1133H52.148C55.5075 51.9605 58.4091 49.8225 59.6306 46.921H62.3794C73.9852 46.921 84.9797 50.2805 94.9059 56.8472C102.541 61.8868 108.038 68.4535 111.092 76.3941C113.688 82.808 113.535 89.0691 110.787 94.4143C106.511 102.508 99.3342 106.936 89.8664 106.936C83.7581 106.936 77.9555 105.104 74.9011 103.729C73.2216 105.256 70.1672 107.7 68.0292 109.227C74.5959 112.281 81.315 113.961 87.7284 113.961C102.388 113.961 113.23 105.867 117.353 97.7738C121.782 88.9163 121.476 73.6453 110.024 60.6652ZM32.4492 82.1968C32.602 86.7783 36.4195 90.443 41.0006 90.443H41.3062C46.0401 90.2907 49.7048 86.3199 49.552 81.586C49.3997 77.0044 45.5817 73.3397 41.0006 73.3397H40.6955C40.3898 73.3397 39.9314 73.3397 39.6267 73.4921C33.3656 63.1078 30.7697 51.8077 31.6861 39.5907C32.2964 30.428 35.3508 22.4869 40.6955 15.9202C45.1237 10.2699 53.6751 7.52113 59.4783 7.36878C75.6647 7.06316 82.5361 27.2208 82.9945 35.3147C84.9797 35.7727 88.3392 36.8419 90.63 37.6055C88.7972 12.8668 73.5267 0.0389404 58.8675 0.0389404C45.1237 0.0389404 32.4492 9.96519 27.4097 24.6253C20.3855 44.1722 24.9666 62.9555 33.518 77.7685C32.7548 78.8372 32.2964 80.5172 32.4492 82.1972V82.1968Z" fill="#764ABC"/>
	</symbol>

	<symbol id="git" viewBox="0 0 256 256" xmlns="http://www.w3.org/2000/svg">
        <path d="M251.172245,116.593517 L139.398753,4.82845302 C132.966433,-1.60948434 122.525852,-1.60948434 116.085106,4.82845302 L92.8753863,28.0381721 L122.317995,57.4807809 C129.16041,55.1690784 137.005593,56.7195763 142.460425,62.1744081 C147.940536,67.6629464 149.479799,75.5755422 147.111919,82.4404282 L175.487156,110.815665 C182.352042,108.450594 190.273064,109.98143 195.755985,115.472777 C203.418591,123.132574 203.418591,135.547794 195.755985,143.213209 C188.09057,150.878624 175.67535,150.878624 168.007126,143.213209 C162.243319,137.443783 160.81922,128.977839 163.737639,121.877008 L137.275245,95.4146135 L137.272436,165.052198 C139.140337,165.979126 140.904309,167.212221 142.460425,168.762719 C150.123031,176.422516 150.123031,188.837736 142.460425,196.508768 C134.79501,204.171375 122.374173,204.171375 114.719993,196.508768 C107.057387,188.837736 107.057387,176.422516 114.719993,168.762719 C116.613174,166.872347 118.804095,165.442631 121.141077,164.481996 L121.141077,94.1955625 C118.804095,93.2405457 116.615983,91.8192558 114.719993,89.9148396 C108.914052,84.1173254 107.518042,75.5980132 110.492639,68.4690928 L81.4713611,39.4421974 L4.83125614,116.076685 C-1.60949009,122.52024 -1.60949009,132.960821 4.83125614,139.398759 L116.604747,251.166631 C123.039876,257.604569 133.477648,257.604569 139.921203,251.166631 L251.172245,139.9184 C257.61018,133.477654 257.61018,123.031455 251.172245,116.593517" fill="#DE4C36"></path>
	</symbol>

	<!-- Social Networks  -->
	<symbol id="gmail" viewBox="0 0 39 38" xmlns="http://www.w3.org/2000/svg">
		<circle cx="19.2479" cy="18.8683" r="18.8683" fill="black"/>
		<g clip-path="url(#clip0_1_3190)">
		<path d="M31.0406 11.4974V26.2383C31.0406 27.0748 30.4031 27.7123 29.5666 27.7123H28.0925V14.3343L19.248 20.6876L10.4035 14.3343V27.7123H8.9294C8.09286 27.7123 7.45532 27.0748 7.45532 26.2383V11.4974C7.45532 11.0788 7.61305 10.7103 7.87765 10.4494C8.01545 10.3115 8.17958 10.2027 8.36026 10.1295C8.54094 10.0563 8.73449 10.0202 8.9294 10.0233H9.42101L19.248 17.1483L29.0749 10.0233H29.5666C29.9852 10.0233 30.3537 10.1811 30.6183 10.4494C30.8829 10.7103 31.0406 11.0788 31.0406 11.4974Z" fill="white"/>
		</g>
	</symbol>

	<symbol id="linkedin" viewBox="0 0 39 38" xmlns="http://www.w3.org/2000/svg">
		<ellipse cx="19.3521" cy="18.868" rx="18.8683" ry="18.8683" fill="black"/>
		<path d="M10.0634 28.7051H14.0114V14.0974H10.0634V28.7051ZM12.0374 7.64899C10.7214 7.64899 9.66858 8.70179 9.66858 10.0178C9.66858 11.3338 10.7214 12.3866 12.0374 12.3866C13.3534 12.3866 14.4062 11.3338 14.4062 10.0178C14.4062 8.70179 13.3534 7.64899 12.0374 7.64899ZM20.723 16.3346V14.0974H16.775V28.7051H20.723V21.2039C20.723 16.9926 26.1187 16.7294 26.1187 21.2039V28.7051H30.0667V19.7563C30.0667 12.6498 22.5655 12.913 20.723 16.3346Z" fill="white"/>
	</symbol>

	<symbol id="github" viewBox="0 0 39 38" xmlns="http://www.w3.org/2000/svg">
		<circle cx="19.2141" cy="18.8683" r="18.8683" fill="white"/>
		<g clip-path="url(#clip0_1_3204)">
		<path fill-rule="evenodd" clip-rule="evenodd" d="M19.2141 0C8.78937 0 0.345825 8.44354 0.345825 18.8682C0.345825 27.2175 5.74686 34.2695 13.247 36.7695C14.1904 36.9346 14.5442 36.3686 14.5442 35.8733C14.5442 35.4251 14.5206 33.9393 14.5206 32.3591C9.77995 33.2317 8.55351 31.2034 8.17615 30.142C7.96388 29.5996 7.04405 27.925 6.24215 27.4769C5.58177 27.1231 4.63835 26.2505 6.21857 26.2269C7.70444 26.2033 8.76578 27.5948 9.11956 28.1609C10.8177 31.0147 13.53 30.2128 14.6149 29.7175C14.78 28.4911 15.2753 27.6656 15.8178 27.1939C11.6196 26.7222 7.23274 25.0948 7.23274 17.8777C7.23274 15.8257 7.96388 14.1276 9.16673 12.8068C8.97805 12.3351 8.31766 10.4011 9.35542 7.80674C9.35542 7.80674 10.9356 7.31145 14.5442 9.74073C16.0536 9.3162 17.6574 9.10393 19.2612 9.10393C20.865 9.10393 22.4688 9.3162 23.9783 9.74073C27.5869 7.28786 29.1671 7.80674 29.1671 7.80674C30.2048 10.4011 29.5444 12.3351 29.3558 12.8068C30.5586 14.1276 31.2898 15.8022 31.2898 17.8777C31.2898 25.1184 26.8793 26.7222 22.6811 27.1939C23.3651 27.7835 23.9547 28.9156 23.9547 30.6845C23.9547 33.2081 23.9311 35.2365 23.9311 35.8733C23.9311 36.3686 24.2849 36.9582 25.2283 36.7695C28.974 35.5049 32.2287 33.0976 34.5346 29.8863C36.8404 26.6751 38.0812 22.8216 38.0823 18.8682C38.0823 8.44354 29.6388 0 19.2141 0Z" fill="black"/>
		</g>
	</symbol>

	<!-- Other -->
	<symbol id="arrow-scroll" viewBox="0 0 32 32" xmlns="http://www.w3.org/2000/svg">
		<path fill-rule="evenodd" clip-rule="evenodd" d="M15.9993 2C16.2645 2 16.5189 2.10536 16.7064 2.29289C16.894 2.48043 16.9993 2.73478 16.9993 3V26.586L23.2913 20.292C23.4791 20.1042 23.7338 19.9987 23.9993 19.9987C24.2649 19.9987 24.5195 20.1042 24.7073 20.292C24.8951 20.4798 25.0006 20.7344 25.0006 21C25.0006 21.2656 24.8951 21.5202 24.7073 21.708L16.7073 29.708C16.6144 29.8011 16.5041 29.875 16.3826 29.9254C16.2611 29.9758 16.1308 30.0018 15.9993 30.0018C15.8678 30.0018 15.7375 29.9758 15.616 29.9254C15.4946 29.875 15.3842 29.8011 15.2913 29.708L7.29131 21.708C7.10354 21.5202 6.99805 21.2656 6.99805 21C6.99805 20.7344 7.10354 20.4798 7.29131 20.292C7.47908 20.1042 7.73376 19.9987 7.99931 19.9987C8.26486 19.9987 8.51954 20.1042 8.70731 20.292L14.9993 26.586V3C14.9993 2.73478 15.1047 2.48043 15.2922 2.29289C15.4797 2.10536 15.7341 2 15.9993 2Z" fill="black"/>
	</symbol>



</svg>