<svg width="39" height="38" viewBox="0 0 39 38" fill="none" xmlns="http://www.w3.org/2000/svg">
<ellipse cx="19.3521" cy="18.868" rx="18.8683" ry="18.8683" fill="url(#paint0_linear_1_3197)"/>
<path d="M10.0634 28.7051H14.0114V14.0974H10.0634V28.7051ZM12.0374 7.64899C10.7214 7.64899 9.66858 8.70179 9.66858 10.0178C9.66858 11.3338 10.7214 12.3866 12.0374 12.3866C13.3534 12.3866 14.4062 11.3338 14.4062 10.0178C14.4062 8.70179 13.3534 7.64899 12.0374 7.64899ZM20.723 16.3346V14.0974H16.775V28.7051H20.723V21.2039C20.723 16.9926 26.1187 16.7294 26.1187 21.2039V28.7051H30.0667V19.7563C30.0667 12.6498 22.5655 12.913 20.723 16.3346Z" fill="#1F2626"/>
<defs>
<linearGradient id="paint0_linear_1_3197" x1="0.483887" y1="18.868" x2="38.2204" y2="18.868" gradientUnits="userSpaceOnUse">
<stop stop-color="#00F5A0"/>
<stop offset="1" stop-color="#00D9F5"/>
</linearGradient>
</defs>
</svg>
