<svg width="64" height="64" viewBox="0 0 64 64" fill="none" xmlns="http://www.w3.org/2000/svg">
<path d="M32.0006 0C14.3264 0 0 14.3264 0 31.9995C0 49.6737 14.3264 64 32.0006 64C49.6737 64 64 49.6737 64 31.9995C64 14.3264 49.6737 0 32.0006 0ZM23.3832 25.389C23.3832 25.4347 23.3636 25.4751 23.3288 25.5035L14.3221 32.2012L23.3288 38.9022C23.3636 38.9262 23.3832 38.9699 23.3832 39.0135V43.1473C23.3832 43.1985 23.3581 43.2442 23.3167 43.2682C23.2982 43.2781 23.2798 43.2845 23.2579 43.2845C23.2339 43.2845 23.2089 43.2757 23.1881 43.2595L10.2168 33.6118C10.183 33.5866 10.1611 33.5441 10.1611 33.4995V30.9039C10.1611 30.8581 10.1829 30.8156 10.2168 30.7905L23.1881 21.143C23.2089 21.1266 23.2339 21.119 23.2579 21.119C23.2796 21.119 23.2982 21.1245 23.3167 21.1353C23.3582 21.1581 23.3832 21.204 23.3832 21.2563V25.389ZM29.8149 45.0505C29.7964 45.1061 29.7506 45.1431 29.696 45.1431H26.0702C26.0289 45.1431 25.9918 45.1213 25.9678 45.0841C25.9449 45.0494 25.9382 45.0035 25.9514 44.9621L34.1851 18.9474C34.2015 18.8927 34.2494 18.8569 34.3029 18.8569H37.9296C37.9689 18.8569 38.0081 18.8776 38.031 18.9136C38.0539 18.9496 38.0605 18.9954 38.0474 19.0379L29.8149 45.0505ZM53.8368 33.4995C53.8368 33.5441 53.8172 33.5868 53.7822 33.6118L40.8109 43.2594C40.7901 43.2756 40.7662 43.2844 40.7411 43.2844C40.7204 43.2844 40.7009 43.2779 40.6823 43.2681C40.6409 43.2441 40.6157 43.1984 40.6157 43.1471V39.0144C40.6157 38.9697 40.6354 38.9261 40.6702 38.9021L49.6769 32.2011L40.6702 25.5034C40.6355 25.4772 40.6157 25.4359 40.6157 25.3901V21.2563C40.6157 21.204 40.6409 21.1581 40.6823 21.1353C40.7008 21.1245 40.7204 21.119 40.7411 21.119C40.7662 21.119 40.7901 21.1266 40.8109 21.143L53.7822 30.7905C53.8172 30.8156 53.8368 30.8581 53.8368 30.9039V33.4995Z" fill="url(#paint0_linear_71140_406)"/>
<defs>
<linearGradient id="paint0_linear_71140_406" x1="0" y1="32" x2="64" y2="32" gradientUnits="userSpaceOnUse">
<stop stop-color="#00F5A0"/>
<stop offset="1" stop-color="#00D9F5"/>
</linearGradient>
</defs>
</svg>
